<svg width="137" height="188" viewBox="0 0 137 188" fill="none" xmlns="http://www.w3.org/2000/svg">
<path d="M22 3C26.8103 41.9633 39.5343 79.9671 46.0028 118.778" stroke="#087E8B" stroke-width="5" stroke-linecap="round" stroke-linejoin="round"/>
<path d="M116.358 4.41187C108.643 31.5676 105.405 60.1902 102.239 88.1863C100.813 100.789 98.0028 113.091 98.0028 125.838" stroke="#087E8B" stroke-width="5" stroke-linecap="round" stroke-linejoin="round"/>
<path d="M3 104.247C22.6469 124.635 40.1483 147.386 59.3203 168.333C64.4664 173.956 69.5504 180.269 75.479 185.119C77.0232 186.383 85.79 173.99 86.5391 173.039C103.505 151.506 119.224 129.699 134.309 107.071" stroke="#087E8B" stroke-width="5" stroke-linecap="round" stroke-linejoin="round"/>
<path d="M41.3053 4.92649C57.4256 4.77148 73.5327 4.18955 89.6564 4.18955C93.5651 4.18955 97.5274 4.0443 101.427 4.39426C101.751 4.42339 104.547 4.47472 103.617 5.5406C102.18 7.18852 99.7509 8.23196 97.8446 9.14339C89.5399 13.1138 80.8137 16.2308 72.2975 19.7061C56.5918 26.1154 40.3684 33.7762 23.4961 36.5123C22.7024 36.641 26.5876 35.851 26.669 35.8368C32.5309 34.8124 38.3506 34.4801 44.294 34.322C52.6125 34.1006 60.9253 33.7548 69.2474 33.6874C72.378 33.662 74.475 33.6669 77.497 33.6669C77.9214 33.6669 80.5612 33.3826 81.2226 33.8307C82.2641 34.5362 68.0582 45.7898 67.4665 46.2767C61.9535 50.8127 57.0557 55.9378 52.3594 61.3019C52.1507 61.5402 48.2763 65.868 48.8999 65.6007C60.6766 60.5535 72.4933 57.553 85.3576 56.7575C87.3966 56.6314 94.2164 55.4411 96.166 57.0441C97.2287 57.9178 91.9749 61.5246 91.8263 61.6295C78.8105 70.8102 62.9895 75.4872 48.3881 81.4448C46.4428 82.2385 44.3687 83.1141 42.4517 84.0241C42.1319 84.1759 41.8195 84.3434 41.51 84.5154C41.3006 84.6317 41.9674 84.3689 42.1856 84.2697C48.5165 81.392 54.9114 78.675 61.6939 77.0232C69.8026 75.0484 78.2148 74.3476 86.5449 74.362C89.5899 74.3673 93.7138 74.5419 96.7801 75.058C97.9371 75.2528 103.05 75.9501 103.331 77.9853C103.5 79.2116 101.523 80.5994 100.997 81.0149C97.2799 83.9511 92.8698 85.9921 88.4691 87.6678C76.7944 92.1133 64.3504 94.4597 52.1546 96.9613C45.7711 98.2708 39.2498 100.07 32.7692 100.851C31.1145 101.05 32.2783 100.545 33.0558 100.175C36.0856 98.7324 39.3554 97.5978 42.5745 96.6748C50.4789 94.4083 58.7932 93.1946 67.0162 93.0924C67.2859 93.0891 70.0842 92.9294 70.8236 93.5019C71.9069 94.3405 69.3082 95.8827 68.1625 96.6338C62.4186 100.4 55.6323 102.503 49.2479 104.863C39.4966 108.467 29.7339 112.168 20.3641 116.695C19.1571 117.278 19.3242 117.23 20.3437 116.92C23.4907 115.962 21.9618 116.321 26.2391 115.139C38.3993 111.779 50.8813 109.977 63.4543 109.08C75.3344 108.232 87.3466 107.985 99.2365 108.793C99.5991 108.818 116.23 109.661 113.156 112.683C111.824 113.992 109.706 115.011 108.121 115.753C102.888 118.204 97.3425 119.942 91.7853 121.485C81.6934 124.286 71.1959 127.376 60.8546 129.079C60.4492 129.146 61.4122 128.452 61.7757 128.261C63.5785 127.312 64.2286 126.949 66.2792 126.07C78.0749 121.015 90.6079 117.341 103.167 114.771C106.954 113.995 112.857 113.04 116.8 112.478C118.257 112.27 119.719 112.093 121.181 111.925C122.395 111.786 124.155 110.814 124.845 111.823C125.649 112.999 109.724 119.305 109.267 119.479C99.5106 123.197 89.7566 126.821 80.1581 130.942C71.779 134.54 62.814 137.732 54.9182 142.344C54.1225 142.809 51.096 144.643 53.9151 143.879C58.9322 142.521 63.8934 141.213 69.0632 140.543C76.32 139.602 83.7106 138.959 91.0279 138.803C92.332 138.775 94.1114 138.207 94.9173 139.233C95.6704 140.191 91.4411 143.015 91.3759 143.061C81.4631 150.011 68.3122 151.716 59.0941 159.662C58.6126 160.077 60.3609 159.474 60.9569 159.253C69.2536 156.171 77.7089 153.675 86.463 152.272C87.0686 152.175 102.483 150.289 102.102 151.638C101.847 152.545 99.419 154.235 99.1956 154.401C95.4012 157.225 91.299 159.528 87.0362 161.566C81.724 164.106 75.9648 165.938 70.9874 169.14C66.7276 171.88 73.4545 168.09 73.9761 167.789C80.595 163.972 87.6519 160.953 94.9378 158.659C97.3565 157.897 98.5818 157.57 96.7596 159.826C95.7859 161.032 84.8027 170.766 84.1294 170.041C83.5472 169.414 87.2348 164.975 87.7322 164.104" stroke="#087E8B" stroke-width="5" stroke-linecap="round" stroke-linejoin="round"/>
</svg>
