<svg width="13" height="16" viewBox="0 0 13 16" fill="none" xmlns="http://www.w3.org/2000/svg">
<path d="M3.84307 4.32364C2.71401 5.72641 -0.609085 8.80881 2.15029 5.22645C2.80792 4.3727 6.37183 -0.402115 5.62049 3.05405C5.51319 3.54766 3.91656 8.23409 2.94026 7.25779C2.47207 6.7896 5.81798 3.50096 5.81798 4.91611C5.81798 6.09266 4.4781 8.75131 3.33524 9.28912C2.51411 9.67553 3.4698 7.68359 4.04056 7.45528C5.3811 6.91906 2.44708 9.93074 1.30391 10.8126C-1.53643 13.0037 1.07728 7.16356 1.55782 6.4114C5.64331 0.016727 3.97482 9.07093 1.61425 9.54304C1.32506 9.60088 2.59563 7.40753 2.6017 7.39885C3.03185 6.78436 4.18789 5.00423 5.14087 5.05718C5.81006 5.09435 5.24307 11.5084 5.05623 12.1104C4.26546 14.6584 2.48911 14.392 4.18163 11.7154C4.91082 10.5623 7.64784 6.97058 9.20354 8.95057C12.3412 12.9439 7.16307 16.1961 7.99038 9.85338C8.24596 7.89397 10.9527 2.74261 10.9527 4.71862C10.9527 7.02168 11.2563 9.77052 9.31639 11.4333C4.34992 15.6903 8.35147 2.72251 9.31639 3.92866C11.3456 6.4652 4.83836 13.3418 7.11578 4.83147C7.59415 3.04386 10.6127 -0.274736 10.4167 3.44904C10.3722 4.29494 9.22794 13.6024 7.79289 12.7311C5.6032 11.4016 4.83136 6.09758 6.66437 4.35185C8.68717 2.42537 9.5685 2.70509 9.82422 5.67786C10.1046 8.93766 9.71286 11.9092 6.43867 13.1825C4.22123 14.0449 2.94912 10.9119 2.54528 9.11984C1.13168 2.847 15.4993 3.19475 9.93708 10.9819C9.2307 11.9708 5.74346 12.7772 5.423 11.0948C4.89109 8.30224 7.99991 6.21516 9.93708 4.83147" stroke="#087E8B" stroke-width="3" stroke-linecap="round" stroke-linejoin="round"/>
</svg>
