<svg width="500" height="500" viewBox="0 0 500 500" fill="none" xmlns="http://www.w3.org/2000/svg">
<g clip-path="url(#clip0)">
<path d="M148.134 222.485C154.96 222.485 160.494 216.759 160.494 209.695C160.494 202.631 154.96 196.905 148.134 196.905C141.308 196.905 135.774 202.631 135.774 209.695C135.774 216.759 141.308 222.485 148.134 222.485Z" fill="#00A790"/>
<path d="M148.134 196.367C141.04 196.367 135.236 202.279 135.236 209.587C135.236 216.896 141.04 222.915 148.134 222.915C155.228 222.915 161.032 217.003 161.032 209.587C161.032 202.279 155.335 196.367 148.134 196.367ZM148.134 221.84C141.578 221.84 136.311 216.359 136.311 209.587C136.311 202.816 141.578 197.442 148.134 197.442C154.69 197.442 159.957 202.923 159.957 209.587C159.957 216.251 154.69 221.84 148.134 221.84Z" fill="#00A790"/>
<path d="M252.39 123.71C246.049 123.71 239.815 124.033 233.581 124.678V41.38C233.581 18.5942 215.095 0 192.201 0C179.841 0 168.663 5.48151 161.032 14.1874C155.013 9.35082 148.242 7.73861 137.279 7.73861H136.741L136.204 7.84609C113.525 10.2107 96.9733 30.632 99.3379 53.3104L110.193 156.062C101.702 159.716 93.9639 164.445 87.1926 170.249C69.6733 185.189 60 205.503 60 227.429C60 240.434 63.7618 252.687 70.5331 263.543C69.7807 266.552 69.0284 269.454 68.3835 272.463C65.6965 285.361 64.2992 298.581 64.2992 311.909C64.2992 415.628 148.672 500.107 252.498 500.107C356.217 500.107 440.696 415.735 440.696 311.909C440.696 208.083 356.109 123.71 252.39 123.71ZM137.923 29.2347C146.199 29.2347 147.382 29.4497 151.359 35.0387C151.036 37.0808 150.929 39.2304 150.929 41.38V147.356C144.157 147.463 137.601 148.216 131.26 149.506L120.834 51.0533C119.652 40.3052 127.283 30.632 137.923 29.2347ZM81.4961 227.429C81.4961 202.386 99.0155 181.857 125.133 173.259C131.905 171.002 139.321 169.604 147.167 169.067C149.316 168.96 151.466 168.852 153.723 168.852H182.85C188.762 168.852 193.598 164.015 193.598 158.104C193.598 157.352 193.491 156.707 193.383 155.954C192.524 151.87 189.407 148.538 185.322 147.571C184.57 147.356 183.71 147.248 182.85 147.248H172.532V41.38C172.532 30.417 181.453 21.4961 192.416 21.4961C203.379 21.4961 212.3 30.417 212.3 41.38V154.235C212.3 154.45 212.3 154.557 212.3 154.772C212.3 176.913 229.604 193.68 252.713 193.895C252.928 193.895 253.035 193.895 253.25 193.895C314.729 193.895 359.441 235.49 359.656 292.992C357.399 321.152 344.071 346.733 322.145 365.004C300.112 383.491 271.844 392.412 242.825 390.155C242.395 390.155 241.965 390.155 241.642 390.155C211.118 382.524 207.141 356.728 205.421 326.526C205.421 326.419 205.421 326.204 205.421 326.096C205.421 325.989 205.421 325.989 205.421 325.989C204.669 304.923 185.107 287.833 160.494 286.221C159.742 286.006 158.882 285.899 158.022 285.899C131.475 285.899 108.044 275.365 94.3938 259.566C91.3843 256.126 88.9123 252.365 86.8702 248.495C84.2906 243.444 82.6784 237.962 82.0335 232.373C81.6036 230.761 81.4961 229.149 81.4961 227.429ZM221.758 413.048C221.758 419.604 216.814 424.871 210.58 424.871C204.454 424.871 199.402 419.604 199.402 413.048C199.402 406.492 204.454 401.225 210.58 401.225C216.814 401.225 221.758 406.599 221.758 413.048ZM252.39 478.504C160.494 478.504 85.6879 403.697 85.6879 311.801C85.6879 302.343 86.5477 292.885 88.0524 283.534C105.142 297.721 128.358 306.642 154.153 307.395C154.905 307.502 155.55 307.61 156.303 307.61C171.028 307.61 183.495 316.53 183.495 327.171C183.495 327.708 183.495 328.138 183.603 328.676C184.463 343.508 185.86 365.219 196.608 382.954C185.537 388.328 177.906 399.721 177.906 413.048C177.906 431.427 192.524 446.367 210.58 446.367C228.637 446.367 243.255 431.427 243.255 413.048C243.255 412.618 243.255 412.296 243.255 411.866V411.758C243.469 411.758 243.684 411.758 243.899 411.758C246.479 411.866 248.951 411.973 251.423 411.973C282.377 411.973 312.042 401.333 335.795 381.449C362.236 359.308 378.25 328.461 380.937 294.497C380.937 294.389 380.937 294.282 380.937 294.175C380.937 293.852 380.937 293.637 380.937 293.315C380.937 293.1 380.937 292.992 380.937 292.777C380.83 258.921 367.502 228.074 343.319 205.825C319.888 184.329 288.074 172.399 253.68 172.291C253.465 172.291 253.358 172.291 253.143 172.291C241.75 172.291 233.689 164.983 233.689 154.665C233.689 154.45 233.689 154.342 233.689 154.127V146.174C234.119 146.174 234.441 146.066 234.871 146.066C240.675 145.421 246.586 145.099 252.498 145.099C344.394 145.099 419.2 219.905 419.2 311.801C419.093 403.697 344.286 478.504 252.39 478.504Z" fill="#00A790"/>
</g>
<defs>
<clipPath id="clip0">
<rect width="500" height="500" fill="white"/>
</clipPath>
</defs>
</svg>
