<svg width="627" height="627" viewBox="0 0 627 627" fill="none" xmlns="http://www.w3.org/2000/svg">
<path d="M212.115 222.437C218.94 222.437 224.473 216.713 224.473 209.65C224.473 202.588 218.94 196.863 212.115 196.863C205.291 196.863 199.758 202.588 199.758 209.65C199.758 216.713 205.291 222.437 212.115 222.437Z" fill="#00A790"/>
<path d="M212.115 196.325C205.023 196.325 199.22 202.236 199.22 209.542C199.22 216.85 205.023 222.867 212.115 222.867C219.208 222.867 225.01 216.957 225.01 209.542C225.01 202.236 219.315 196.325 212.115 196.325ZM212.115 221.793C205.561 221.793 200.295 216.313 200.295 209.542C200.295 202.773 205.561 197.4 212.115 197.4C218.67 197.4 223.936 202.88 223.936 209.542C223.936 216.205 218.67 221.793 212.115 221.793Z" fill="#00A790"/>
<path d="M316.349 123.684C310.009 123.684 303.777 124.006 297.544 124.651V41.3711C297.544 18.5902 279.062 0 256.173 0C243.815 0 232.64 5.48034 225.01 14.1844C218.993 9.34882 212.223 7.73695 201.262 7.73695H200.725L200.188 7.84441C177.514 10.2085 160.965 30.6254 163.329 53.299L174.182 156.029C165.693 159.682 157.957 164.41 151.187 170.213C133.671 185.149 124 205.459 124 227.38C124 240.383 127.761 252.633 134.531 263.487C133.779 266.495 133.026 269.396 132.382 272.405C129.695 285.3 128.298 298.517 128.298 311.842C128.298 415.539 212.653 500 316.457 500C420.154 500 504.615 415.646 504.615 311.842C504.615 208.038 420.046 123.684 316.349 123.684ZM201.906 29.2284C210.181 29.2284 211.363 29.4434 215.339 35.0312C215.017 37.0729 214.91 39.222 214.91 41.3711V147.324C208.139 147.431 201.584 148.184 195.245 149.474L184.821 51.0424C183.639 40.2966 191.269 30.6254 201.906 29.2284ZM145.492 227.38C145.492 202.343 163.007 181.818 189.119 173.222C195.89 170.965 203.304 169.568 211.148 169.031C213.297 168.924 215.446 168.816 217.703 168.816H246.824C252.734 168.816 257.569 163.98 257.569 158.07C257.569 157.318 257.462 156.673 257.354 155.921C256.496 151.838 253.379 148.506 249.295 147.539C248.543 147.324 247.684 147.217 246.824 147.217H236.508V41.3711C236.508 30.4105 245.427 21.4915 256.388 21.4915C267.348 21.4915 276.267 30.4105 276.267 41.3711V154.202C276.267 154.417 276.267 154.524 276.267 154.739C276.267 176.875 293.568 193.639 316.672 193.854C316.887 193.854 316.994 193.854 317.209 193.854C378.674 193.854 423.377 235.44 423.592 292.929C421.335 321.083 408.01 346.659 386.089 364.926C364.061 383.409 335.799 392.328 306.786 390.072C306.356 390.072 305.926 390.072 305.603 390.072C275.086 382.442 271.11 356.652 269.39 326.456C269.39 326.349 269.39 326.134 269.39 326.026C269.39 325.919 269.39 325.919 269.39 325.919C268.638 304.858 249.08 287.771 224.472 286.16C223.721 285.945 222.861 285.838 222.001 285.838C195.46 285.838 172.034 275.306 158.386 259.51C155.378 256.071 152.906 252.311 150.864 248.442C148.285 243.392 146.674 237.911 146.029 232.323C145.599 230.712 145.492 229.1 145.492 227.38ZM285.723 412.96C285.723 419.514 280.78 424.78 274.548 424.78C268.423 424.78 263.372 419.514 263.372 412.96C263.372 406.405 268.423 401.139 274.548 401.139C280.78 401.139 285.723 406.512 285.723 412.96ZM316.349 478.402C224.472 478.402 149.682 403.611 149.682 311.734C149.682 302.278 150.542 292.822 152.046 283.473C169.132 297.657 192.343 306.576 218.133 307.329C218.885 307.436 219.53 307.544 220.282 307.544C235.004 307.544 247.469 316.462 247.469 327.101C247.469 327.638 247.469 328.068 247.577 328.606C248.436 343.435 249.833 365.141 260.579 382.872C249.51 388.245 241.881 399.635 241.881 412.96C241.881 431.335 256.496 446.272 274.548 446.272C292.601 446.272 307.216 431.335 307.216 412.96C307.216 412.53 307.216 412.208 307.216 411.778V411.67C307.43 411.67 307.645 411.67 307.86 411.67C310.439 411.778 312.911 411.885 315.382 411.885C346.329 411.885 375.988 401.247 399.736 381.367C426.171 359.231 442.182 328.391 444.868 294.434C444.868 294.326 444.868 294.219 444.868 294.112C444.868 293.789 444.868 293.574 444.868 293.252C444.868 293.037 444.868 292.929 444.868 292.714C444.761 258.866 431.436 228.025 407.258 205.781C383.832 184.29 352.025 172.362 317.639 172.254C317.424 172.254 317.317 172.254 317.102 172.254C305.711 172.254 297.652 164.948 297.652 154.632C297.652 154.417 297.652 154.309 297.652 154.094V146.143C298.082 146.143 298.404 146.035 298.834 146.035C304.636 145.39 310.546 145.068 316.457 145.068C408.333 145.068 483.123 219.858 483.123 311.734C483.016 403.611 408.225 478.402 316.349 478.402Z" fill="#00A790"/>
</svg>
