<svg width="67" height="216" viewBox="0 0 67 216" fill="none" xmlns="http://www.w3.org/2000/svg">
<path d="M34.8472 3C12.6016 35.0494 -14.6402 92.3393 18.2783 130.28C28.504 142.066 45.7428 141.657 57.703 136.413C66.7415 132.45 65.0196 115.667 61.9598 105.749C59.3666 97.3427 51.0216 97.5606 45.7184 98.1063C40.4387 98.6496 32.0051 113.598 30.3939 120.562C27.3841 133.571 26.1484 151.119 28.0363 164.718C28.8033 170.244 30.2954 176.385 31.5727 181.702C32.4671 185.424 34.8472 187.619 34.8472 191.514" stroke="#087E8B" stroke-width="5" stroke-linecap="round" stroke-linejoin="round"/>
<path d="M14.8074 179.626C17.9733 189.4 23.0009 198.224 28.2982 205.856C29.5842 207.709 31.2562 212.338 33.2099 212.555C41.7396 213.5 45.0945 187.529 51.3505 183.023" stroke="#087E8B" stroke-width="5" stroke-linecap="round" stroke-linejoin="round"/>
</svg>
