<svg width="80" height="80" viewBox="0 0 80 80" fill="none" xmlns="http://www.w3.org/2000/svg">
<path d="M70 56.5C65 47 60 48.5 54.5 48C55 49.5 55 51 55 53C63 55 65 64.5 65 70V75H55V70H60C60 70 60 57.5 52.5 57.5C45 57.5 45 69.5 45 70H50V75H40V70C40 64.5 42 54.5 50 53C50 50 49.5 47.5 49 46.5C48 46 47 45 47 43.5C47 40.5 51 41.5 54 36C54 36 58.5 24.5 57 14.5H52C52 13.5 52.5 13 52.5 12C52.5 11 52.5 10.5 52 9.5H56C54.5 4.5 49.5 0 40 0C30.5 0 25.5 4.5 23.5 10H27.5C27.5 11 27 11.5 27 12.5C27 13.5 27 14 27.5 15H22.5C21.5 25 25.5 36.5 25.5 36.5C28.5 41.5 32.5 40.5 32.5 44C32.5 46.5 30 47.5 27 48C26 49 25 51 25 55V61C28 62 30 65 30 68C30 71.5 26.5 75 22.5 75C18.5 75 15 71.5 15 67.5C15 64 17 61.5 20 60.5V54.5C20 52 20.5 50 21 48C17.5 48.5 13.5 50 10 56.5C7 62 5.5 80 5.5 80H74C74.5 80 73 62 70 56.5ZM32.5 12.5C32.5 8.5 36 5 40 5C44 5 47.5 8.5 47.5 12.5C47.5 16.5 44 20 40 20C36 20 32.5 16.5 32.5 12.5Z" fill="#0F327E"/>
<path d="M25 67.5C25 68.163 24.7366 68.7989 24.2678 69.2678C23.7989 69.7366 23.163 70 22.5 70C21.837 70 21.2011 69.7366 20.7322 69.2678C20.2634 68.7989 20 68.163 20 67.5C20 66.837 20.2634 66.2011 20.7322 65.7322C21.2011 65.2634 21.837 65 22.5 65C23.163 65 23.7989 65.2634 24.2678 65.7322C24.7366 66.2011 25 66.837 25 67.5Z" fill="#0F327E"/>
</svg>
