<svg width="32" height="75" viewBox="0 0 32 75" fill="none" xmlns="http://www.w3.org/2000/svg">
<path d="M3.33154 9.62024C5.78759 18.0527 9.98298 25.9121 13.3737 33.9937C15.3073 38.6024 17.0324 43.4557 19.2628 47.9166" stroke="#087E8B" stroke-width="5" stroke-linecap="round" stroke-linejoin="round"/>
<path d="M6.08887 6.86299C10.872 4.33072 16.6334 3.46086 21.9861 3.49292C26.7901 3.52168 28.1971 7.03088 28.6241 11.4586C29.8864 24.5463 23.8156 36.5312 21.7138 49.1421" stroke="#087E8B" stroke-width="5" stroke-linecap="round" stroke-linejoin="round"/>
<path d="M13.7482 8.39478C11.3774 10.8279 4.56139 18.2688 7.34842 16.3264C10.0534 14.4411 12.794 12.6842 15.6204 10.9819C16.7452 10.3045 17.8553 9.59941 18.9905 8.93943C20.6733 7.96106 19.3739 10.3122 19.1096 10.9308C17.4342 14.853 15.0314 18.2585 12.8801 21.9091C12.0176 23.3729 13.269 22.1125 13.6801 21.773C16.1277 19.751 18.6501 17.8831 21.3393 16.1902C21.6945 15.9667 28.0059 12.4579 28.0114 12.6499C28.0308 13.3283 27.1676 14.2976 26.82 14.7435C25.4275 16.5295 23.8564 18.1995 22.3265 19.8667C20.7658 21.5675 18.8532 23.1362 17.4927 25.0069C17.4296 25.0936 18.3776 24.2411 18.6331 24.0367C20.1228 22.8449 19.3179 26.7223 19.2118 27.2195C18.9472 28.4597 18.5087 29.6158 17.9693 30.7598C17.6958 31.3397 16.741 32.6038 16.8119 33.3129C16.855 33.7443 17.3904 32.6663 17.6969 32.3598C18.5856 31.4711 19.5474 30.6576 20.5564 29.9088C21.5855 29.145 24.6833 26.6089 23.4499 29.6365C22.8276 31.1638 19.8665 35.1624 20.8968 33.8746C21.6135 32.9787 22.8571 32.486 23.8584 31.9853" stroke="#087E8B" stroke-width="5" stroke-linecap="round" stroke-linejoin="round"/>
<path d="M20.7834 63C20.5959 63.2475 16.8356 68.5556 17.0056 68.5556C17.9237 68.5556 21.9797 66.037 21.2278 67.1111C20.2991 68.4379 18.6868 70.752 20.0056 71.7778C20.8615 72.4435 25.3519 68.4709 25.7834 67.5C27.3142 64.0557 19.4742 63.0773 23.7834 62" stroke="#087E8B" stroke-width="5" stroke-linecap="round" stroke-linejoin="round"/>
</svg>
