<svg width="32" height="32" viewBox="0 0 32 32" fill="none" xmlns="http://www.w3.org/2000/svg">
<g opacity="0.15" clip-path="url(#clip0)">
<path d="M30 32C31.1046 32 32 31.1046 32 30C32 28.8954 31.1046 28 30 28C28.8954 28 28 28.8954 28 30C28 31.1046 28.8954 32 30 32Z" fill="#FFBF00"/>
<path d="M30 1V25" stroke="#087E8B" stroke-width="4" stroke-miterlimit="10"/>
<path d="M25.53 28.83C22.7806 30.8912 19.4362 32.0036 16 32C11.7565 32 7.68687 30.3143 4.68629 27.3137C1.68571 24.3131 0 20.2435 0 16C0 11.7565 1.68571 7.68688 4.68629 4.6863C7.68687 1.68572 11.7565 8.75128e-06 16 8.75128e-06C19.4362 -0.00359981 22.7806 1.10887 25.53 3.17001L23 6.24001C21.2062 4.95683 19.0934 4.19284 16.8937 4.03197C14.694 3.8711 12.4926 4.31957 10.5311 5.32811C8.56967 6.33665 6.92411 7.86626 5.77519 9.74892C4.62627 11.6316 4.01842 13.7945 4.01842 16C4.01842 18.2056 4.62627 20.3684 5.77519 22.2511C6.92411 24.1338 8.56967 25.6634 10.5311 26.6719C12.4926 27.6805 14.694 28.1289 16.8937 27.968C19.0934 27.8072 21.2062 27.0432 23 25.76L25.53 28.83Z" fill="#087E8B"/>
</g>
<defs>
<clipPath id="clip0">
<rect width="32" height="32" fill="white"/>
</clipPath>
</defs>
</svg>
