<svg width="80" height="80" viewBox="0 0 80 80" fill="none" xmlns="http://www.w3.org/2000/svg">
<path d="M52 57.3333C52 58.6299 51.4849 59.8735 50.5681 60.7903C49.6512 61.7071 48.4077 62.2222 47.1111 62.2222H17.7778L8 72V32.8889C8 31.5923 8.51508 30.3488 9.43192 29.4319C10.3488 28.5151 11.5923 28 12.8889 28H47.1111C48.4077 28 49.6512 28.5151 50.5681 29.4319C51.4849 30.3488 52 31.5923 52 32.8889V57.3333Z" fill="white" stroke="#0F327E" stroke-width="6.66667" stroke-linecap="round" stroke-linejoin="round"/>
<path d="M28 37.3333C28 38.6299 28.5151 39.8735 29.4319 40.7903C30.3488 41.7071 31.5923 42.2222 32.8889 42.2222H62.2222L72 52V12.8889C72 11.5923 71.4849 10.3488 70.5681 9.43192C69.6512 8.51508 68.4077 8 67.1111 8H32.8889C31.5923 8 30.3488 8.51508 29.4319 9.43192C28.5151 10.3488 28 11.5923 28 12.8889V37.3333Z" fill="white" stroke="#0F327E" stroke-width="6.66667" stroke-linecap="round" stroke-linejoin="round"/>
</svg>
