<svg width="64" height="64" viewBox="0 0 64 64" fill="none" xmlns="http://www.w3.org/2000/svg">
<path d="M45.3334 56V50.6667C45.3334 47.8377 44.2096 45.1246 42.2092 43.1242C40.2088 41.1238 37.4957 40 34.6667 40H13.3334C10.5044 40 7.79133 41.1238 5.79094 43.1242C3.79055 45.1246 2.66675 47.8377 2.66675 50.6667V56" stroke="#0F327E" stroke-width="5.33333" stroke-linecap="round" stroke-linejoin="round"/>
<path d="M24.0002 29.3333C29.8912 29.3333 34.6668 24.5577 34.6668 18.6667C34.6668 12.7756 29.8912 8 24.0002 8C18.1091 8 13.3335 12.7756 13.3335 18.6667C13.3335 24.5577 18.1091 29.3333 24.0002 29.3333Z" stroke="#0F327E" stroke-width="5.33333" stroke-linecap="round" stroke-linejoin="round"/>
<path d="M61.3335 56V50.6667C61.3317 48.3033 60.5451 46.0074 59.0971 44.1395C57.6492 42.2716 55.6218 40.9375 53.3335 40.3467" stroke="#0F327E" stroke-width="5.33333" stroke-linecap="round" stroke-linejoin="round"/>
<path d="M42.6667 8.34668C44.9612 8.93415 46.9948 10.2685 48.4471 12.1395C49.8994 14.0105 50.6877 16.3116 50.6877 18.68C50.6877 21.0485 49.8994 23.3496 48.4471 25.2205C46.9948 27.0915 44.9612 28.4259 42.6667 29.0133" stroke="#0F327E" stroke-width="5.33333" stroke-linecap="round" stroke-linejoin="round"/>
</svg>
