<svg width="64" height="64" viewBox="0 0 64 64" fill="none" xmlns="http://www.w3.org/2000/svg">
<path d="M29.3335 10.6667H10.6668C9.25234 10.6667 7.89579 11.2286 6.89559 12.2288C5.8954 13.229 5.3335 14.5855 5.3335 16V53.3334C5.3335 54.7478 5.8954 56.1044 6.89559 57.1046C7.89579 58.1048 9.25234 58.6667 10.6668 58.6667H48.0002C49.4147 58.6667 50.7712 58.1048 51.7714 57.1046C52.7716 56.1044 53.3335 54.7478 53.3335 53.3334V34.6667" stroke="#0F327E" stroke-width="5.33333" stroke-linecap="round" stroke-linejoin="round"/>
<path d="M49.3335 6.66668C50.3944 5.60582 51.8332 5.00983 53.3335 5.00983C54.8338 5.00983 56.2726 5.60582 57.3335 6.66668C58.3944 7.72755 58.9904 9.16639 58.9904 10.6667C58.9904 12.167 58.3944 13.6058 57.3335 14.6667L32.0002 40L21.3335 42.6667L24.0002 32L49.3335 6.66668Z" stroke="#0F327E" stroke-width="5.33333" stroke-linecap="round" stroke-linejoin="round"/>
</svg>
