<svg width="64" height="64" viewBox="0 0 64 64" fill="none" xmlns="http://www.w3.org/2000/svg">
<path d="M32 21.3333C45.2548 21.3333 56 17.7516 56 13.3333C56 8.91504 45.2548 5.33331 32 5.33331C18.7452 5.33331 8 8.91504 8 13.3333C8 17.7516 18.7452 21.3333 32 21.3333Z" stroke="#0F327E" stroke-width="5.33333" stroke-linecap="round" stroke-linejoin="round"/>
<path d="M56 32C56 34.865 53.7672 37.3725 47 38.7852M8 32C8 34.9022 8.58479 37.3831 15.5 38.7852" stroke="#0F327E" stroke-width="5.33333" stroke-linecap="round" stroke-linejoin="round"/>
<path d="M8 13.3333V50.6666C8 55.0933 18.6667 58.6666 32 58.6666C45.3333 58.6666 56 55.0933 56 50.6666V13.3333" stroke="#0F327E" stroke-width="5.33333" stroke-linecap="round" stroke-linejoin="round"/>
<path d="M44.6668 29L30.0002 43.6667L23.3335 37" stroke="#0F327E" stroke-width="4.5" stroke-linecap="round" stroke-linejoin="round"/>
</svg>
