<svg width="80" height="80" viewBox="0 0 80 80" fill="none" xmlns="http://www.w3.org/2000/svg">
<g clip-path="url(#clip0)">
<path d="M75.1335 21.4C74.7375 19.818 73.9311 18.3686 72.7956 17.198C71.6602 16.0274 70.236 15.1773 68.6668 14.7333C62.9335 13.3333 40.0001 13.3333 40.0001 13.3333C40.0001 13.3333 17.0668 13.3333 11.3334 14.8666C9.76427 15.3106 8.34004 16.1608 7.2046 17.3313C6.06917 18.5019 5.26274 19.9513 4.86678 21.5333C3.8175 27.3518 3.30423 33.2543 3.33345 39.1666C3.29605 45.1235 3.80934 51.071 4.86678 56.9333C5.30331 58.4661 6.1278 59.8605 7.2606 60.9816C8.39339 62.1027 9.79618 62.9127 11.3334 63.3333C17.0668 64.8666 40.0001 64.8666 40.0001 64.8666C40.0001 64.8666 62.9335 64.8666 68.6668 63.3333C70.236 62.8894 71.6602 62.0392 72.7956 60.8686C73.9311 59.6981 74.7375 58.2486 75.1335 56.6666C76.1746 50.8919 76.6879 45.0344 76.6668 39.1666C76.7042 33.2098 76.1909 27.2623 75.1335 21.4V21.4Z" stroke="#0F327E" stroke-width="6.66667" stroke-linecap="round" stroke-linejoin="round"/>
<path d="M32.5 50.0667L51.6667 39.1667L32.5 28.2667V50.0667Z" stroke="#0F327E" stroke-width="6.66667" stroke-linecap="round" stroke-linejoin="round"/>
</g>
<defs>
<clipPath id="clip0">
<rect width="80" height="80" fill="white"/>
</clipPath>
</defs>
</svg>
