<svg width="64" height="64" viewBox="0 0 64 64" fill="none" xmlns="http://www.w3.org/2000/svg">
<path d="M60 38.2222V53.7778C60 55.428 59.3444 57.0107 58.1776 58.1776C57.0107 59.3444 55.428 60 53.7778 60H10.2222C8.57199 60 6.98934 59.3444 5.82245 58.1776C4.65555 57.0107 4 55.428 4 53.7778V10.2222C4 8.57199 4.65555 6.98934 5.82245 5.82245C6.98934 4.65555 8.57199 4 10.2222 4H25.7778V10.2222H10.2222V53.7778H53.7778V38.2222H60Z" fill="#0F327E"/>
<path d="M60 16.4H47.6V4H41.4V16.4H29V22.6H41.4V35H47.6V22.6H60" fill="#0F327E"/>
</svg>
