<svg width="32" height="32" viewBox="0 0 32 32" fill="none" xmlns="http://www.w3.org/2000/svg">
<path d="M16 3C8.832 3 3 8.832 3 16C3 23.168 8.832 29 16 29C23.168 29 29 23.168 29 16C29 8.832 23.168 3 16 3ZM16 5C22.087 5 27 9.913 27 16C27 22.087 22.087 27 16 27C9.913 27 5 22.087 5 16C5 9.913 9.913 5 16 5ZM15.906 10C12.582 10 9.906 12.676 9.906 16C9.906 19.324 12.582 22 15.906 22C18.306 22 20.356 20.56 21.312 18.53L19.5 17.687C18.855 19.058 17.506 20 15.906 20C13.63 20 11.906 18.276 11.906 16C11.906 13.724 13.63 12 15.906 12C17.506 12 18.856 12.942 19.5 14.313L21.313 13.469C20.357 11.439 18.306 9.999 15.906 9.999V10Z" fill="#757575"/>
</svg>
