<svg width="32" height="32" viewBox="0 0 32 32" fill="none" xmlns="http://www.w3.org/2000/svg">
<g clip-path="url(#clip0)">
<path d="M15.8598 32C13.37 31.9995 10.9153 31.4076 8.6944 30.2723C6.47347 29.137 4.54868 27.4902 3.07582 25.465C1.60295 23.4399 0.623383 21.0934 0.216388 18.6155C-0.190607 16.1375 -0.0135947 13.5977 0.733099 11.2015C1.47979 8.80541 2.77519 6.62029 4.51446 4.82301C6.25373 3.02573 8.388 1.66678 10.7446 0.85616C13.1011 0.0455366 15.6137 -0.193996 18.0791 0.156947C20.5444 0.50789 22.8933 1.43945 24.9355 2.87624L23.3327 5.19153C21.6508 4.00847 19.7164 3.24148 17.6862 2.95263C15.6559 2.66379 13.5867 2.86121 11.6461 3.52891C9.70549 4.19661 7.94796 5.31583 6.51574 6.79601C5.08352 8.27618 4.01685 10.0757 3.40204 12.049C2.78723 14.0223 2.64157 16.1139 2.97682 18.1545C3.31208 20.1951 4.11885 22.1275 5.33184 23.7951C6.54483 25.4628 8.12996 26.819 9.95895 27.7538C11.7879 28.6887 13.8094 29.1761 15.8598 29.1765C18.5441 29.1829 21.1642 28.3489 23.3588 26.7897L24.9672 29.0993C22.302 30.9935 19.12 32.007 15.8598 32Z" fill="#087E8B" fill-opacity="0.2"/>
<path d="M31.4402 0H28.6414V25.7882H31.4402V0Z" fill="#087E8B" fill-opacity="0.2"/>
<path d="M30.1341 31.9058C31.1646 31.9058 32 31.0631 32 30.0235C32 28.9839 31.1646 28.1411 30.1341 28.1411C29.1036 28.1411 28.2682 28.9839 28.2682 30.0235C28.2682 31.0631 29.1036 31.9058 30.1341 31.9058Z" fill="#FFBF00" fill-opacity="0.2"/>
</g>
<defs>
<clipPath id="clip0">
<rect width="32" height="32" fill="white"/>
</clipPath>
</defs>
</svg>
