<svg width="200" height="200" viewBox="0 0 200 200" fill="none" xmlns="http://www.w3.org/2000/svg">
<g clip-path="url(#clip0)">
<path d="M159.563 180.188C142.379 193.07 121.476 200.023 100 200C73.4784 200 48.043 189.464 29.2893 170.711C10.5357 151.957 0 126.522 0 100C0 73.4784 10.5357 48.043 29.2893 29.2894C48.043 10.5357 73.4784 5.46955e-05 100 5.46955e-05C121.476 -0.0224988 142.379 6.93042 159.563 19.8126L143.75 39.0001C132.538 30.9802 119.334 26.2053 105.586 25.1998C91.8377 24.1944 78.0785 26.9973 65.8195 33.3007C53.5604 39.6041 43.2757 49.1641 36.0949 60.9307C28.9142 72.6974 25.1152 86.2154 25.1152 100C25.1152 113.785 28.9142 127.303 36.0949 139.069C43.2757 150.836 53.5604 160.396 65.8195 166.699C78.0785 173.003 91.8377 175.806 105.586 174.8C119.334 173.795 132.538 169.02 143.75 161L159.563 180.188Z" fill="#00A790"/>
</g>
<defs>
<clipPath id="clip0">
<rect width="200" height="200" fill="white"/>
</clipPath>
</defs>
</svg>
