<svg width="80" height="80" viewBox="0 0 80 80" fill="none" xmlns="http://www.w3.org/2000/svg">
<path d="M50 31C50 30.4477 50.4477 30 51 30H55.6667C56.2189 30 56.6667 30.4477 56.6667 31V35.6666C56.6667 36.2189 56.2189 36.6666 55.6667 36.6666H51C50.4477 36.6666 50 36.2189 50 35.6666V31ZM56.6667 17.6666C56.6667 17.1144 56.2189 16.6666 55.6667 16.6666H51C50.4477 16.6666 50 17.1144 50 17.6666V22.3333C50 22.8856 50.4477 23.3333 51 23.3333H55.6667C56.2189 23.3333 56.6667 22.8856 56.6667 22.3333V17.6666ZM36.6667 49C36.6667 49.5523 37.1144 50 37.6667 50H42.3333C42.8856 50 43.3333 49.5523 43.3333 49V44.3333C43.3333 43.781 42.8856 43.3333 42.3333 43.3333H37.6667C37.1144 43.3333 36.6667 43.781 36.6667 44.3333V49ZM43.3333 17.6666C43.3333 17.1144 42.8856 16.6666 42.3333 16.6666H37.6667C37.1144 16.6666 36.6667 17.1144 36.6667 17.6666V22.3333C36.6667 22.8856 37.1144 23.3333 37.6667 23.3333H42.3333C42.8856 23.3333 43.3333 22.8856 43.3333 22.3333V17.6666ZM36.6667 35.6666C36.6667 36.2189 37.1144 36.6666 37.6667 36.6666H42.3333C42.8856 36.6666 43.3333 36.2189 43.3333 35.6666V31C43.3333 30.4477 42.8856 30 42.3333 30H37.6667C37.1144 30 36.6667 30.4477 36.6667 31V35.6666ZM30 17.6666C30 17.1144 29.5523 16.6666 29 16.6666H24.3333C23.781 16.6666 23.3333 17.1144 23.3333 17.6666V22.3333C23.3333 22.8856 23.781 23.3333 24.3333 23.3333H29C29.5523 23.3333 30 22.8856 30 22.3333V17.6666ZM30 31C30 30.4477 29.5523 30 29 30H24.3333C23.781 30 23.3333 30.4477 23.3333 31V35.6666C23.3333 36.2189 23.781 36.6666 24.3333 36.6666H29C29.5523 36.6666 30 36.2189 30 35.6666V31ZM49.0924 70.9741C48.7184 70.3745 48.0666 70 47.3599 70H43.3333V58.3333H36.6667V70H16.6667V9.99998H63.3333V34.9285C63.3333 35.9678 64.1331 36.8217 65.152 37.0263C65.7625 37.149 66.3635 37.3053 66.9526 37.4917C68.3863 37.9454 70 36.9628 70 35.459V5.33331C70 4.22874 69.1046 3.33331 68 3.33331H12C10.8954 3.33331 10 4.22874 10 5.33331V74.6666C10 75.7712 10.8954 76.6666 12 76.6666H49.0903C50.7278 76.6666 51.6652 74.8108 50.734 73.4639C50.1872 72.6731 49.6332 71.8412 49.0924 70.9741ZM23.3333 62.3333C23.3333 62.8856 23.781 63.3333 24.3333 63.3333H29C29.5523 63.3333 30 62.8856 30 62.3333V57.6666C30 57.1144 29.5523 56.6666 29 56.6666H24.3333C23.781 56.6666 23.3333 57.1144 23.3333 57.6666V62.3333ZM30 44.3333C30 43.781 29.5523 43.3333 29 43.3333H24.3333C23.781 43.3333 23.3333 43.781 23.3333 44.3333V49C23.3333 49.5523 23.781 50 24.3333 50H29C29.5523 50 30 49.5523 30 49V44.3333ZM73.3333 55C73.3333 63.6666 61.6667 76.6666 61.6667 76.6666C61.6667 76.6666 50 63.6666 50 55C50 48.6666 55.3333 43.3333 61.6667 43.3333C68 43.3333 73.3333 48.6666 73.3333 55ZM65.6667 55.3333C65.6667 53.3333 63.6667 51.3333 61.6667 51.3333C59.6667 51.3333 57.6667 53 57.6667 55.3333C57.6667 57.3333 59.3333 59.3333 61.6667 59.3333C64 59.3333 66 57.3333 65.6667 55.3333Z" fill="#0F327E"/>
</svg>
