<svg width="80" height="80" viewBox="0 0 80 80" fill="none" xmlns="http://www.w3.org/2000/svg">
<path d="M9.49988 76H45.5743C47.7383 76.0012 49.8769 75.5286 51.8429 74.6147C53.8088 73.7008 55.5556 72.3674 56.9629 70.7061L76.0951 48.1512C76.4957 47.6797 76.7754 47.1159 76.9096 46.5094C77.0438 45.9029 77.0284 45.2724 76.8646 44.6734C76.7009 44.0744 76.3938 43.5253 75.9706 43.0744C75.5474 42.6236 75.0209 42.2848 74.4376 42.088L67.0577 39.6021C65.2741 39.0162 63.375 38.8837 61.5286 39.2161C59.6821 39.5486 57.9453 40.3358 56.4716 41.5082L44.5281 51.16L42.2144 46.48C40.9748 43.9573 39.061 41.8357 36.6897 40.3556C34.3184 38.8754 31.5843 38.0959 28.7971 38.1053H9.49988C5.3637 38.1053 2 41.5044 2 45.6842V68.4211C2 72.6008 5.3637 76 9.49988 76ZM9.49988 45.6842H28.7971C31.6583 45.6842 34.227 47.2872 35.5057 49.8716L37.1819 53.2632H20.7497V60.8421H43.3018C43.8788 60.8344 44.4461 60.6917 44.9593 60.4253L44.9706 60.4215L44.9856 60.4139H44.9968L45.0043 60.4101H45.0193L45.0231 60.4063C45.0568 60.4177 45.0343 60.4025 45.0343 60.4025C45.0718 60.4025 45.0418 60.3987 45.0418 60.3987H45.0456L45.0531 60.395L45.0643 60.3912L45.0718 60.3874L45.0793 60.3836L45.0906 60.3798L45.0981 60.376C45.1093 60.376 45.1018 60.3722 45.1056 60.3722L45.1168 60.3646L45.1243 60.3608L45.1318 60.3571L45.1431 60.3533L45.1506 60.3495H45.1543L45.1618 60.3457H45.1656L45.173 60.3419L45.1806 60.3381C45.2143 60.3343 45.1918 60.3343 45.1918 60.3343L45.1993 60.3305C45.3438 60.2424 45.4817 60.1436 45.6118 60.035L61.159 47.4653C62.1415 46.6771 63.4953 46.4308 64.684 46.8324L66.7727 47.5373L51.2742 65.8139C50.5613 66.6319 49.6844 67.2874 48.7017 67.7369C47.719 68.1864 46.653 68.4196 45.5743 68.4211H9.49988V45.6842ZM54.4992 4.00004H54.4354C53.8242 4.00761 50.663 4.14782 46.9993 6.67161C43.4331 4.21604 40.3469 4.01898 39.6194 4.00382L39.5069 4.00004H39.4919C36.4882 4.00004 33.6607 5.18614 31.5458 7.32719C29.4233 9.47582 28.2496 12.3293 28.2496 15.3685C28.2496 18.4076 29.4233 21.2611 31.4783 23.3415L44.2806 36.9305C44.6328 37.3 45.0552 37.5939 45.5225 37.7945C45.9898 37.9951 46.4924 38.0983 47.0001 38.098C47.5078 38.0976 48.0102 37.9937 48.4772 37.7924C48.9442 37.5912 49.3663 37.2968 49.718 36.9268L62.4528 23.4059C64.579 21.2611 65.749 18.4076 65.749 15.3685C65.749 12.3293 64.5752 9.47582 62.4565 7.33098C61.4153 6.272 60.1765 5.4323 58.8119 4.86053C57.4472 4.28876 55.9839 3.99628 54.5067 4.00004H54.4992ZM58.2491 15.3685C58.2491 16.3802 57.8591 17.3314 57.0829 18.1158L46.9993 28.8211L36.8482 18.0476C36.1395 17.3314 35.7495 16.3802 35.7495 15.3685C35.7495 14.3567 36.1394 13.4055 36.8519 12.6855C37.5301 11.9885 38.4534 11.5907 39.4206 11.579C39.5144 11.5828 41.3031 11.7002 43.4218 13.4169C43.7256 13.6632 44.0331 13.9436 44.3481 14.2581L46.9993 16.9373L49.6505 14.2581C49.9655 13.9436 50.273 13.6632 50.5767 13.4169C52.5604 11.8063 54.2367 11.6055 54.5217 11.5828C55.0104 11.5827 55.4943 11.6804 55.9455 11.8703C56.3967 12.0603 56.8062 12.3386 57.1504 12.6893C57.8591 13.4055 58.2491 14.3567 58.2491 15.3685Z" fill="#0F327E"/>
</svg>
