<svg width="339" height="417" viewBox="0 0 339 417" fill="none" xmlns="http://www.w3.org/2000/svg">
<path d="M5.04 26.068H12.88V28H2.828V10.388H5.04V26.068ZM16.0657 14.588H18.2777V28H16.0657V14.588ZM17.1577 11.452C16.7097 11.452 16.355 11.3307 16.0937 11.088C15.851 10.8267 15.7297 10.4907 15.7297 10.08C15.7297 9.65067 15.851 9.31467 16.0937 9.072C16.355 8.81067 16.7097 8.68 17.1577 8.68C17.6057 8.68 17.9603 8.81067 18.2217 9.072C18.5017 9.31467 18.6417 9.65067 18.6417 10.08C18.6417 10.4907 18.5017 10.8267 18.2217 11.088C17.9603 11.3307 17.6057 11.452 17.1577 11.452ZM28.2968 20.916L26.5048 22.372V28H24.2928V8.932H26.5048V20.02L32.9728 14.616H36.0528L29.8928 19.628L36.3608 28H33.6448L28.2968 20.916ZM40.2375 14.588H42.4495V28H40.2375V14.588ZM41.3295 11.452C40.8815 11.452 40.5269 11.3307 40.2655 11.088C40.0229 10.8267 39.9015 10.4907 39.9015 10.08C39.9015 9.65067 40.0229 9.31467 40.2655 9.072C40.5269 8.81067 40.8815 8.68 41.3295 8.68C41.7775 8.68 42.1322 8.81067 42.3935 9.072C42.6735 9.31467 42.8135 9.65067 42.8135 10.08C42.8135 10.4907 42.6735 10.8267 42.3935 11.088C42.1322 11.3307 41.7775 11.452 41.3295 11.452ZM50.5927 17.192C51.4701 15.2507 52.9727 14.28 55.1007 14.28C56.6874 14.28 57.9194 14.8027 58.7967 15.848C59.6927 16.8933 60.1407 18.3213 60.1407 20.132V28H57.9567V20.132C57.9567 18.844 57.6487 17.8733 57.0327 17.22C56.4354 16.5667 55.5767 16.24 54.4567 16.24C53.3367 16.24 52.4314 16.6973 51.7407 17.612C51.0501 18.5267 50.6861 19.796 50.6487 21.42V28H48.4367V14.616H50.3407L50.5927 17.192ZM65.8958 27.58C64.7758 27.0387 64.2158 26.208 64.2158 25.088C64.2158 24.5093 64.4305 24.0053 64.8598 23.576C65.3078 23.128 65.8585 22.8293 66.5118 22.68C65.5038 21.784 64.9998 20.608 64.9998 19.152C64.9998 17.696 65.5131 16.52 66.5398 15.624C67.5851 14.728 68.8171 14.28 70.2358 14.28C71.6545 14.28 72.8585 14.616 73.8478 15.288C73.9785 14.2987 74.3705 13.5053 75.0238 12.908C75.6958 12.3107 76.5731 12.012 77.6558 12.012L77.4598 14.196C75.8171 14.196 74.9585 14.8867 74.8838 16.268C75.5371 17.0707 75.8638 18.032 75.8638 19.152C75.8638 20.5893 75.3411 21.7747 74.2958 22.708C73.2691 23.6227 71.9811 24.08 70.4318 24.08C69.3678 24.08 68.4251 23.8653 67.6038 23.436C67.2305 23.5107 66.8945 23.688 66.5958 23.968C66.2971 24.2293 66.1478 24.5933 66.1478 25.06C66.1478 26.0493 66.9691 26.544 68.6118 26.544H73.8198C75.0705 26.544 76.0598 26.8147 76.7878 27.356C77.5158 27.8787 77.8798 28.616 77.8798 29.568C77.8798 30.9867 77.1611 32.228 75.7238 33.292C74.3051 34.356 72.5038 34.888 70.3198 34.888C68.1358 34.888 66.4185 34.4773 65.1678 33.656C63.9171 32.8533 63.2918 31.836 63.2918 30.604C63.2918 29.8013 63.5251 29.148 63.9918 28.644C64.4771 28.14 65.1118 27.7853 65.8958 27.58ZM65.4758 30.52C65.4758 31.2293 65.8585 31.836 66.6238 32.34C67.4078 32.8627 68.5838 33.124 70.1518 33.124C71.7385 33.124 73.0545 32.7787 74.0998 32.088C75.1638 31.416 75.6958 30.6227 75.6958 29.708C75.6958 29.2787 75.5371 28.9053 75.2198 28.588C74.9211 28.2893 74.4545 28.14 73.8198 28.14H68.4158C67.4638 28.1773 66.7358 28.4013 66.2318 28.812C65.7278 29.2413 65.4758 29.8107 65.4758 30.52ZM73.7078 19.152C73.7078 18.1813 73.4185 17.3973 72.8398 16.8C72.2611 16.184 71.4585 15.876 70.4318 15.876C69.4238 15.876 68.6305 16.184 68.0518 16.8C67.4731 17.3973 67.1838 18.1813 67.1838 19.152C67.1838 20.1227 67.4731 20.9253 68.0518 21.56C68.6491 22.176 69.4518 22.484 70.4598 22.484C71.4678 22.484 72.2611 22.1667 72.8398 21.532C73.4185 20.8973 73.7078 20.104 73.7078 19.152ZM96.1277 19.32C96.1277 18.1067 95.8757 17.2387 95.3717 16.716C94.8677 16.1933 94.1304 15.932 93.1597 15.932C92.2077 15.932 91.4331 16.128 90.8357 16.52C90.2571 16.8933 89.9677 17.4907 89.9677 18.312H87.5317C87.5317 16.2587 88.6331 14.9893 90.8357 14.504C91.5077 14.3547 92.2357 14.28 93.0197 14.28C94.6811 14.28 95.9784 14.7 96.9117 15.54C97.8451 16.38 98.3117 17.6587 98.3117 19.376V28H96.4077L96.1837 25.76C95.3624 27.4587 93.8784 28.308 91.7317 28.308C90.2944 28.308 89.1371 27.9067 88.2597 27.104C87.4011 26.3013 86.9717 25.3027 86.9717 24.108C86.9717 22.9133 87.4477 21.98 88.3997 21.308C89.3704 20.636 90.5744 20.3 92.0117 20.3C93.4491 20.3 94.8211 20.5427 96.1277 21.028V19.32ZM96.1277 22.428C94.8024 22.0547 93.6451 21.868 92.6557 21.868C91.6664 21.868 90.8637 22.0453 90.2477 22.4C89.6317 22.7547 89.3237 23.3147 89.3237 24.08C89.3237 25.76 90.2757 26.6 92.1797 26.6C93.2624 26.6 94.1864 26.2173 94.9517 25.452C95.7357 24.668 96.1277 23.66 96.1277 22.428ZM109.48 17.892C109.48 16.7907 109.946 15.9133 110.88 15.26C111.832 14.6067 113.11 14.28 114.716 14.28C116.321 14.28 117.572 14.616 118.468 15.288C119.382 15.96 119.858 16.8093 119.896 17.836H117.74C117.572 16.6227 116.545 16.016 114.66 16.016C113.745 16.016 113.036 16.2213 112.532 16.632C112.046 17.0427 111.804 17.4907 111.804 17.976C111.804 18.4427 111.99 18.844 112.364 19.18C112.737 19.4973 113.334 19.7773 114.156 20.02L116.844 20.916C117.982 21.2707 118.85 21.728 119.448 22.288C120.064 22.8293 120.372 23.5853 120.372 24.556C120.372 25.508 119.877 26.376 118.888 27.16C117.898 27.9253 116.517 28.308 114.744 28.308C112.97 28.308 111.589 27.916 110.6 27.132C109.61 26.3293 109.088 25.3027 109.032 24.052H111.16C111.197 24.892 111.533 25.5267 112.168 25.956C112.821 26.3667 113.633 26.572 114.604 26.572C115.574 26.572 116.377 26.3667 117.012 25.956C117.646 25.5453 117.964 25.06 117.964 24.5C117.964 23.9213 117.777 23.4827 117.404 23.184C117.03 22.8853 116.424 22.624 115.584 22.4L112.98 21.532C110.646 20.8413 109.48 19.628 109.48 17.892ZM129.734 14.28C131.601 14.28 133.103 14.8867 134.242 16.1C135.399 17.3133 135.978 19.0493 135.978 21.308C135.978 23.548 135.399 25.2747 134.242 26.488C133.103 27.7013 131.601 28.308 129.734 28.308C127.867 28.308 126.355 27.7013 125.198 26.488C124.059 25.2747 123.49 23.548 123.49 21.308C123.49 19.0493 124.059 17.3133 125.198 16.1C126.355 14.8867 127.867 14.28 129.734 14.28ZM133.738 21.308C133.738 19.7027 133.402 18.452 132.73 17.556C132.058 16.6413 131.069 16.184 129.762 16.184C128.474 16.184 127.485 16.6413 126.794 17.556C126.103 18.452 125.758 19.7027 125.758 21.308C125.758 22.8947 126.085 24.1453 126.738 25.06C127.391 25.956 128.362 26.404 129.65 26.404C130.957 26.404 131.965 25.956 132.674 25.06C133.383 24.1453 133.738 22.8947 133.738 21.308ZM142.331 17.192C143.208 15.2507 144.711 14.28 146.839 14.28C148.426 14.28 149.658 14.8027 150.535 15.848C151.431 16.8933 151.879 18.3213 151.879 20.132V28H149.695V20.132C149.695 18.844 149.387 17.8733 148.771 17.22C148.174 16.5667 147.315 16.24 146.195 16.24C145.075 16.24 144.17 16.6973 143.479 17.612C142.788 18.5267 142.424 19.796 142.387 21.42V28H140.175V14.616H142.079L142.331 17.192ZM157.634 27.58C156.514 27.0387 155.954 26.208 155.954 25.088C155.954 24.5093 156.169 24.0053 156.598 23.576C157.046 23.128 157.597 22.8293 158.25 22.68C157.242 21.784 156.738 20.608 156.738 19.152C156.738 17.696 157.251 16.52 158.278 15.624C159.323 14.728 160.555 14.28 161.974 14.28C163.393 14.28 164.597 14.616 165.586 15.288C165.717 14.2987 166.109 13.5053 166.762 12.908C167.434 12.3107 168.311 12.012 169.394 12.012L169.198 14.196C167.555 14.196 166.697 14.8867 166.622 16.268C167.275 17.0707 167.602 18.032 167.602 19.152C167.602 20.5893 167.079 21.7747 166.034 22.708C165.007 23.6227 163.719 24.08 162.17 24.08C161.106 24.08 160.163 23.8653 159.342 23.436C158.969 23.5107 158.633 23.688 158.334 23.968C158.035 24.2293 157.886 24.5933 157.886 25.06C157.886 26.0493 158.707 26.544 160.35 26.544H165.558C166.809 26.544 167.798 26.8147 168.526 27.356C169.254 27.8787 169.618 28.616 169.618 29.568C169.618 30.9867 168.899 32.228 167.462 33.292C166.043 34.356 164.242 34.888 162.058 34.888C159.874 34.888 158.157 34.4773 156.906 33.656C155.655 32.8533 155.03 31.836 155.03 30.604C155.03 29.8013 155.263 29.148 155.73 28.644C156.215 28.14 156.85 27.7853 157.634 27.58ZM157.214 30.52C157.214 31.2293 157.597 31.836 158.362 32.34C159.146 32.8627 160.322 33.124 161.89 33.124C163.477 33.124 164.793 32.7787 165.838 32.088C166.902 31.416 167.434 30.6227 167.434 29.708C167.434 29.2787 167.275 28.9053 166.958 28.588C166.659 28.2893 166.193 28.14 165.558 28.14H160.154C159.202 28.1773 158.474 28.4013 157.97 28.812C157.466 29.2413 157.214 29.8107 157.214 30.52ZM165.446 19.152C165.446 18.1813 165.157 17.3973 164.578 16.8C163.999 16.184 163.197 15.876 162.17 15.876C161.162 15.876 160.369 16.184 159.79 16.8C159.211 17.3973 158.922 18.1813 158.922 19.152C158.922 20.1227 159.211 20.9253 159.79 21.56C160.387 22.176 161.19 22.484 162.198 22.484C163.206 22.484 163.999 22.1667 164.578 21.532C165.157 20.8973 165.446 20.104 165.446 19.152Z" fill="#121212"/>
<path d="M5.992 78.388L11.928 90.316L17.808 78.388H20.916V96H18.704V81.524L12.656 93.788H11.172L5.04 81.328V96H2.828V78.388H5.992ZM34.8504 87.32C34.8504 86.1067 34.5984 85.2387 34.0944 84.716C33.5904 84.1933 32.853 83.932 31.8824 83.932C30.9304 83.932 30.1557 84.128 29.5584 84.52C28.9797 84.8933 28.6904 85.4907 28.6904 86.312H26.2544C26.2544 84.2587 27.3557 82.9893 29.5584 82.504C30.2304 82.3547 30.9584 82.28 31.7424 82.28C33.4037 82.28 34.701 82.7 35.6344 83.54C36.5677 84.38 37.0344 85.6587 37.0344 87.376V96H35.1304L34.9064 93.76C34.085 95.4587 32.601 96.308 30.4544 96.308C29.017 96.308 27.8597 95.9067 26.9824 95.104C26.1237 94.3013 25.6944 93.3027 25.6944 92.108C25.6944 90.9133 26.1704 89.98 27.1224 89.308C28.093 88.636 29.297 88.3 30.7344 88.3C32.1717 88.3 33.5437 88.5427 34.8504 89.028V87.32ZM34.8504 90.428C33.525 90.0547 32.3677 89.868 31.3784 89.868C30.389 89.868 29.5864 90.0453 28.9704 90.4C28.3544 90.7547 28.0464 91.3147 28.0464 92.08C28.0464 93.76 28.9984 94.6 30.9024 94.6C31.985 94.6 32.909 94.2173 33.6744 93.452C34.4584 92.668 34.8504 91.66 34.8504 90.428ZM44.3583 85.192C45.2357 83.2507 46.7383 82.28 48.8663 82.28C50.453 82.28 51.685 82.8027 52.5623 83.848C53.4583 84.8933 53.9063 86.3213 53.9063 88.132V96H51.7223V88.132C51.7223 86.844 51.4143 85.8733 50.7983 85.22C50.201 84.5667 49.3423 84.24 48.2223 84.24C47.1023 84.24 46.197 84.6973 45.5063 85.612C44.8157 86.5267 44.4517 87.796 44.4143 89.42V96H42.2023V82.616H44.1063L44.3583 85.192ZM68.2014 93.34C67.2868 95.2813 65.8028 96.252 63.7494 96.252C62.2374 96.252 61.0148 95.832 60.0814 94.992C59.1668 94.152 58.7094 92.8547 58.7094 91.1V82.588H60.9214V90.932C60.9214 93.1907 61.9668 94.32 64.0574 94.32C65.2708 94.32 66.2508 93.8533 66.9974 92.92C67.7628 91.9867 68.1641 90.792 68.2014 89.336V82.588H70.4134V96H68.2014V93.34ZM84.3699 87.32C84.3699 86.1067 84.1179 85.2387 83.6139 84.716C83.1099 84.1933 82.3726 83.932 81.4019 83.932C80.4499 83.932 79.6752 84.128 79.0779 84.52C78.4992 84.8933 78.2099 85.4907 78.2099 86.312H75.7739C75.7739 84.2587 76.8752 82.9893 79.0779 82.504C79.7499 82.3547 80.4779 82.28 81.2619 82.28C82.9232 82.28 84.2206 82.7 85.1539 83.54C86.0872 84.38 86.5539 85.6587 86.5539 87.376V96H84.6499L84.4259 93.76C83.6046 95.4587 82.1206 96.308 79.9739 96.308C78.5366 96.308 77.3792 95.9067 76.5019 95.104C75.6432 94.3013 75.2139 93.3027 75.2139 92.108C75.2139 90.9133 75.6899 89.98 76.6419 89.308C77.6126 88.636 78.8166 88.3 80.2539 88.3C81.6912 88.3 83.0632 88.5427 84.3699 89.028V87.32ZM84.3699 90.428C83.0446 90.0547 81.8872 89.868 80.8979 89.868C79.9086 89.868 79.1059 90.0453 78.4899 90.4C77.8739 90.7547 77.5659 91.3147 77.5659 92.08C77.5659 93.76 78.5179 94.6 80.4219 94.6C81.5046 94.6 82.4286 94.2173 83.1939 93.452C83.9779 92.668 84.3699 91.66 84.3699 90.428ZM91.7499 76.932H93.9619V96H91.7499V76.932ZM99.5975 76.932H101.81V96H99.5975V76.932ZM104.757 99.892C105.672 100.601 106.633 100.956 107.641 100.956C108.388 100.956 109.032 100.583 109.573 99.836C109.965 99.2947 110.32 98.4733 110.637 97.372L111.029 96L105.541 82.616H108.005L112.065 93.284L115.229 82.616H117.469L112.457 98.66C112.028 100.023 111.459 101.068 110.749 101.796C110.059 102.524 109.172 102.888 108.089 102.888C107.025 102.888 105.915 102.561 104.757 101.908V99.892ZM126.98 85.892C126.98 84.7907 127.446 83.9133 128.38 83.26C129.332 82.6067 130.61 82.28 132.216 82.28C133.821 82.28 135.072 82.616 135.968 83.288C136.882 83.96 137.358 84.8093 137.396 85.836H135.24C135.072 84.6227 134.045 84.016 132.16 84.016C131.245 84.016 130.536 84.2213 130.032 84.632C129.546 85.0427 129.304 85.4907 129.304 85.976C129.304 86.4427 129.49 86.844 129.864 87.18C130.237 87.4973 130.834 87.7773 131.656 88.02L134.344 88.916C135.482 89.2707 136.35 89.728 136.948 90.288C137.564 90.8293 137.872 91.5853 137.872 92.556C137.872 93.508 137.377 94.376 136.388 95.16C135.398 95.9253 134.017 96.308 132.244 96.308C130.47 96.308 129.089 95.916 128.1 95.132C127.11 94.3293 126.588 93.3027 126.532 92.052H128.66C128.697 92.892 129.033 93.5267 129.668 93.956C130.321 94.3667 131.133 94.572 132.104 94.572C133.074 94.572 133.877 94.3667 134.512 93.956C135.146 93.5453 135.464 93.06 135.464 92.5C135.464 91.9213 135.277 91.4827 134.904 91.184C134.53 90.8853 133.924 90.624 133.084 90.4L130.48 89.532C128.146 88.8413 126.98 87.628 126.98 85.892ZM150.706 87.32C150.706 86.1067 150.454 85.2387 149.95 84.716C149.446 84.1933 148.709 83.932 147.738 83.932C146.786 83.932 146.011 84.128 145.414 84.52C144.835 84.8933 144.546 85.4907 144.546 86.312H142.11C142.11 84.2587 143.211 82.9893 145.414 82.504C146.086 82.3547 146.814 82.28 147.598 82.28C149.259 82.28 150.557 82.7 151.49 83.54C152.423 84.38 152.89 85.6587 152.89 87.376V96H150.986L150.762 93.76C149.941 95.4587 148.457 96.308 146.31 96.308C144.873 96.308 143.715 95.9067 142.838 95.104C141.979 94.3013 141.55 93.3027 141.55 92.108C141.55 90.9133 142.026 89.98 142.978 89.308C143.949 88.636 145.153 88.3 146.59 88.3C148.027 88.3 149.399 88.5427 150.706 89.028V87.32ZM150.706 90.428C149.381 90.0547 148.223 89.868 147.234 89.868C146.245 89.868 145.442 90.0453 144.826 90.4C144.21 90.7547 143.902 91.3147 143.902 92.08C143.902 93.76 144.854 94.6 146.758 94.6C147.841 94.6 148.765 94.2173 149.53 93.452C150.314 92.668 150.706 91.66 150.706 90.428ZM158.254 82.616L162.286 93.676L166.346 82.616H168.838L163.518 96H161.082L155.762 82.616H158.254ZM172.308 82.588H174.52V96H172.308V82.588ZM173.4 79.452C172.952 79.452 172.597 79.3307 172.336 79.088C172.093 78.8267 171.972 78.4907 171.972 78.08C171.972 77.6507 172.093 77.3147 172.336 77.072C172.597 76.8107 172.952 76.68 173.4 76.68C173.848 76.68 174.203 76.8107 174.464 77.072C174.744 77.3147 174.884 77.6507 174.884 78.08C174.884 78.4907 174.744 78.8267 174.464 79.088C174.203 79.3307 173.848 79.452 173.4 79.452ZM182.663 85.192C183.54 83.2507 185.043 82.28 187.171 82.28C188.758 82.28 189.99 82.8027 190.867 83.848C191.763 84.8933 192.211 86.3213 192.211 88.132V96H190.027V88.132C190.027 86.844 189.719 85.8733 189.103 85.22C188.506 84.5667 187.647 84.24 186.527 84.24C185.407 84.24 184.502 84.6973 183.811 85.612C183.12 86.5267 182.756 87.796 182.719 89.42V96H180.507V82.616H182.411L182.663 85.192ZM197.966 95.58C196.846 95.0387 196.286 94.208 196.286 93.088C196.286 92.5093 196.501 92.0053 196.93 91.576C197.378 91.128 197.929 90.8293 198.582 90.68C197.574 89.784 197.07 88.608 197.07 87.152C197.07 85.696 197.583 84.52 198.61 83.624C199.655 82.728 200.887 82.28 202.306 82.28C203.725 82.28 204.929 82.616 205.918 83.288C206.049 82.2987 206.441 81.5053 207.094 80.908C207.766 80.3107 208.643 80.012 209.726 80.012L209.53 82.196C207.887 82.196 207.029 82.8867 206.954 84.268C207.607 85.0707 207.934 86.032 207.934 87.152C207.934 88.5893 207.411 89.7747 206.366 90.708C205.339 91.6227 204.051 92.08 202.502 92.08C201.438 92.08 200.495 91.8653 199.674 91.436C199.301 91.5107 198.965 91.688 198.666 91.968C198.367 92.2293 198.218 92.5933 198.218 93.06C198.218 94.0493 199.039 94.544 200.682 94.544H205.89C207.141 94.544 208.13 94.8147 208.858 95.356C209.586 95.8787 209.95 96.616 209.95 97.568C209.95 98.9867 209.231 100.228 207.794 101.292C206.375 102.356 204.574 102.888 202.39 102.888C200.206 102.888 198.489 102.477 197.238 101.656C195.987 100.853 195.362 99.836 195.362 98.604C195.362 97.8013 195.595 97.148 196.062 96.644C196.547 96.14 197.182 95.7853 197.966 95.58ZM197.546 98.52C197.546 99.2293 197.929 99.836 198.694 100.34C199.478 100.863 200.654 101.124 202.222 101.124C203.809 101.124 205.125 100.779 206.17 100.088C207.234 99.416 207.766 98.6227 207.766 97.708C207.766 97.2787 207.607 96.9053 207.29 96.588C206.991 96.2893 206.525 96.14 205.89 96.14H200.486C199.534 96.1773 198.806 96.4013 198.302 96.812C197.798 97.2413 197.546 97.8107 197.546 98.52ZM205.778 87.152C205.778 86.1813 205.489 85.3973 204.91 84.8C204.331 84.184 203.529 83.876 202.502 83.876C201.494 83.876 200.701 84.184 200.122 84.8C199.543 85.3973 199.254 86.1813 199.254 87.152C199.254 88.1227 199.543 88.9253 200.122 89.56C200.719 90.176 201.522 90.484 202.53 90.484C203.538 90.484 204.331 90.1667 204.91 89.532C205.489 88.8973 205.778 88.104 205.778 87.152ZM228.198 87.32C228.198 86.1067 227.946 85.2387 227.442 84.716C226.938 84.1933 226.201 83.932 225.23 83.932C224.278 83.932 223.503 84.128 222.906 84.52C222.327 84.8933 222.038 85.4907 222.038 86.312H219.602C219.602 84.2587 220.703 82.9893 222.906 82.504C223.578 82.3547 224.306 82.28 225.09 82.28C226.751 82.28 228.049 82.7 228.982 83.54C229.915 84.38 230.382 85.6587 230.382 87.376V96H228.478L228.254 93.76C227.433 95.4587 225.949 96.308 223.802 96.308C222.365 96.308 221.207 95.9067 220.33 95.104C219.471 94.3013 219.042 93.3027 219.042 92.108C219.042 90.9133 219.518 89.98 220.47 89.308C221.441 88.636 222.645 88.3 224.082 88.3C225.519 88.3 226.891 88.5427 228.198 89.028V87.32ZM228.198 90.428C226.873 90.0547 225.715 89.868 224.726 89.868C223.737 89.868 222.934 90.0453 222.318 90.4C221.702 90.7547 221.394 91.3147 221.394 92.08C221.394 93.76 222.346 94.6 224.25 94.6C225.333 94.6 226.257 94.2173 227.022 93.452C227.806 92.668 228.198 91.66 228.198 90.428ZM241.55 85.892C241.55 84.7907 242.017 83.9133 242.95 83.26C243.902 82.6067 245.181 82.28 246.786 82.28C248.391 82.28 249.642 82.616 250.538 83.288C251.453 83.96 251.929 84.8093 251.966 85.836H249.81C249.642 84.6227 248.615 84.016 246.73 84.016C245.815 84.016 245.106 84.2213 244.602 84.632C244.117 85.0427 243.874 85.4907 243.874 85.976C243.874 86.4427 244.061 86.844 244.434 87.18C244.807 87.4973 245.405 87.7773 246.226 88.02L248.914 88.916C250.053 89.2707 250.921 89.728 251.518 90.288C252.134 90.8293 252.442 91.5853 252.442 92.556C252.442 93.508 251.947 94.376 250.958 95.16C249.969 95.9253 248.587 96.308 246.814 96.308C245.041 96.308 243.659 95.916 242.67 95.132C241.681 94.3293 241.158 93.3027 241.102 92.052H243.23C243.267 92.892 243.603 93.5267 244.238 93.956C244.891 94.3667 245.703 94.572 246.674 94.572C247.645 94.572 248.447 94.3667 249.082 93.956C249.717 93.5453 250.034 93.06 250.034 92.5C250.034 91.9213 249.847 91.4827 249.474 91.184C249.101 90.8853 248.494 90.624 247.654 90.4L245.05 89.532C242.717 88.8413 241.55 87.628 241.55 85.892ZM261.804 82.28C263.671 82.28 265.173 82.8867 266.312 84.1C267.469 85.3133 268.048 87.0493 268.048 89.308C268.048 91.548 267.469 93.2747 266.312 94.488C265.173 95.7013 263.671 96.308 261.804 96.308C259.937 96.308 258.425 95.7013 257.268 94.488C256.129 93.2747 255.56 91.548 255.56 89.308C255.56 87.0493 256.129 85.3133 257.268 84.1C258.425 82.8867 259.937 82.28 261.804 82.28ZM265.808 89.308C265.808 87.7027 265.472 86.452 264.8 85.556C264.128 84.6413 263.139 84.184 261.832 84.184C260.544 84.184 259.555 84.6413 258.864 85.556C258.173 86.452 257.828 87.7027 257.828 89.308C257.828 90.8947 258.155 92.1453 258.808 93.06C259.461 93.956 260.432 94.404 261.72 94.404C263.027 94.404 264.035 93.956 264.744 93.06C265.453 92.1453 265.808 90.8947 265.808 89.308ZM274.401 85.192C275.279 83.2507 276.781 82.28 278.909 82.28C280.496 82.28 281.728 82.8027 282.605 83.848C283.501 84.8933 283.949 86.3213 283.949 88.132V96H281.765V88.132C281.765 86.844 281.457 85.8733 280.841 85.22C280.244 84.5667 279.385 84.24 278.265 84.24C277.145 84.24 276.24 84.6973 275.549 85.612C274.859 86.5267 274.495 87.796 274.457 89.42V96H272.245V82.616H274.149L274.401 85.192ZM289.704 95.58C288.584 95.0387 288.024 94.208 288.024 93.088C288.024 92.5093 288.239 92.0053 288.668 91.576C289.116 91.128 289.667 90.8293 290.32 90.68C289.312 89.784 288.808 88.608 288.808 87.152C288.808 85.696 289.322 84.52 290.348 83.624C291.394 82.728 292.626 82.28 294.044 82.28C295.463 82.28 296.667 82.616 297.656 83.288C297.787 82.2987 298.179 81.5053 298.832 80.908C299.504 80.3107 300.382 80.012 301.464 80.012L301.268 82.196C299.626 82.196 298.767 82.8867 298.692 84.268C299.346 85.0707 299.672 86.032 299.672 87.152C299.672 88.5893 299.15 89.7747 298.104 90.708C297.078 91.6227 295.79 92.08 294.24 92.08C293.176 92.08 292.234 91.8653 291.412 91.436C291.039 91.5107 290.703 91.688 290.404 91.968C290.106 92.2293 289.956 92.5933 289.956 93.06C289.956 94.0493 290.778 94.544 292.42 94.544H297.628C298.879 94.544 299.868 94.8147 300.596 95.356C301.324 95.8787 301.688 96.616 301.688 97.568C301.688 98.9867 300.97 100.228 299.532 101.292C298.114 102.356 296.312 102.888 294.128 102.888C291.944 102.888 290.227 102.477 288.976 101.656C287.726 100.853 287.1 99.836 287.1 98.604C287.1 97.8013 287.334 97.148 287.8 96.644C288.286 96.14 288.92 95.7853 289.704 95.58ZM289.284 98.52C289.284 99.2293 289.667 99.836 290.432 100.34C291.216 100.863 292.392 101.124 293.96 101.124C295.547 101.124 296.863 100.779 297.908 100.088C298.972 99.416 299.504 98.6227 299.504 97.708C299.504 97.2787 299.346 96.9053 299.028 96.588C298.73 96.2893 298.263 96.14 297.628 96.14H292.224C291.272 96.1773 290.544 96.4013 290.04 96.812C289.536 97.2413 289.284 97.8107 289.284 98.52ZM297.516 87.152C297.516 86.1813 297.227 85.3973 296.648 84.8C296.07 84.184 295.267 83.876 294.24 83.876C293.232 83.876 292.439 84.184 291.86 84.8C291.282 85.3973 290.992 86.1813 290.992 87.152C290.992 88.1227 291.282 88.9253 291.86 89.56C292.458 90.176 293.26 90.484 294.268 90.484C295.276 90.484 296.07 90.1667 296.648 89.532C297.227 88.8973 297.516 88.104 297.516 87.152Z" fill="#121212"/>
<path d="M6.776 146.388H9.464L15.372 164H13.076L11.564 159.52H4.564L3.052 164H0.728L6.776 146.388ZM5.152 157.784H11.004L8.092 149.104L5.152 157.784ZM27.6975 152.604V144.932H29.8815V164H28.0895L27.8095 161.76C27.3801 162.6 26.8108 163.235 26.1015 163.664C25.3921 164.093 24.6175 164.308 23.7775 164.308C22.0788 164.308 20.6508 163.655 19.4935 162.348C18.3548 161.041 17.7855 159.343 17.7855 157.252C17.7855 155.143 18.3455 153.453 19.4655 152.184C20.6041 150.915 22.0321 150.28 23.7495 150.28C25.4855 150.28 26.8015 151.055 27.6975 152.604ZM23.8895 152.24C22.8068 152.24 21.8921 152.697 21.1455 153.612C20.4175 154.527 20.0535 155.749 20.0535 157.28C20.0535 158.811 20.4268 160.043 21.1735 160.976C21.9201 161.891 22.8161 162.348 23.8615 162.348C24.9068 162.348 25.7935 162.003 26.5215 161.312C27.2681 160.603 27.6601 159.66 27.6975 158.484V156.3C27.6975 155.049 27.3335 154.06 26.6055 153.332C25.8775 152.604 24.9721 152.24 23.8895 152.24ZM44.3225 152.604V144.932H46.5065V164H44.7145L44.4345 161.76C44.0051 162.6 43.4358 163.235 42.7265 163.664C42.0171 164.093 41.2425 164.308 40.4025 164.308C38.7038 164.308 37.2758 163.655 36.1185 162.348C34.9798 161.041 34.4105 159.343 34.4105 157.252C34.4105 155.143 34.9705 153.453 36.0905 152.184C37.2291 150.915 38.6571 150.28 40.3745 150.28C42.1105 150.28 43.4265 151.055 44.3225 152.604ZM40.5145 152.24C39.4318 152.24 38.5171 152.697 37.7705 153.612C37.0425 154.527 36.6785 155.749 36.6785 157.28C36.6785 158.811 37.0518 160.043 37.7985 160.976C38.5451 161.891 39.4411 162.348 40.4865 162.348C41.5318 162.348 42.4185 162.003 43.1465 161.312C43.8931 160.603 44.2851 159.66 44.3225 158.484V156.3C44.3225 155.049 43.9585 154.06 43.2305 153.332C42.5025 152.604 41.5971 152.24 40.5145 152.24ZM52.3235 150.588H54.5355V164H52.3235V150.588ZM53.4155 147.452C52.9675 147.452 52.6128 147.331 52.3515 147.088C52.1088 146.827 51.9875 146.491 51.9875 146.08C51.9875 145.651 52.1088 145.315 52.3515 145.072C52.6128 144.811 52.9675 144.68 53.4155 144.68C53.8635 144.68 54.2181 144.811 54.4795 145.072C54.7595 145.315 54.8995 145.651 54.8995 146.08C54.8995 146.491 54.7595 146.827 54.4795 147.088C54.2181 147.331 53.8635 147.452 53.4155 147.452ZM62.6787 153.192C63.556 151.251 65.0587 150.28 67.1867 150.28C68.7733 150.28 70.0053 150.803 70.8827 151.848C71.7787 152.893 72.2267 154.321 72.2267 156.132V164H70.0427V156.132C70.0427 154.844 69.7347 153.873 69.1187 153.22C68.5213 152.567 67.6627 152.24 66.5427 152.24C65.4227 152.24 64.5173 152.697 63.8267 153.612C63.136 154.527 62.772 155.796 62.7347 157.42V164H60.5227V150.616H62.4267L62.6787 153.192ZM77.9818 163.58C76.8618 163.039 76.3018 162.208 76.3018 161.088C76.3018 160.509 76.5164 160.005 76.9458 159.576C77.3938 159.128 77.9444 158.829 78.5978 158.68C77.5898 157.784 77.0858 156.608 77.0858 155.152C77.0858 153.696 77.5991 152.52 78.6258 151.624C79.6711 150.728 80.9031 150.28 82.3218 150.28C83.7404 150.28 84.9444 150.616 85.9338 151.288C86.0644 150.299 86.4564 149.505 87.1098 148.908C87.7818 148.311 88.6591 148.012 89.7418 148.012L89.5458 150.196C87.9031 150.196 87.0444 150.887 86.9698 152.268C87.6231 153.071 87.9498 154.032 87.9498 155.152C87.9498 156.589 87.4271 157.775 86.3818 158.708C85.3551 159.623 84.0671 160.08 82.5178 160.08C81.4538 160.08 80.5111 159.865 79.6898 159.436C79.3164 159.511 78.9804 159.688 78.6818 159.968C78.3831 160.229 78.2338 160.593 78.2338 161.06C78.2338 162.049 79.0551 162.544 80.6978 162.544H85.9058C87.1564 162.544 88.1458 162.815 88.8738 163.356C89.6018 163.879 89.9658 164.616 89.9658 165.568C89.9658 166.987 89.2471 168.228 87.8098 169.292C86.3911 170.356 84.5898 170.888 82.4058 170.888C80.2218 170.888 78.5044 170.477 77.2538 169.656C76.0031 168.853 75.3778 167.836 75.3778 166.604C75.3778 165.801 75.6111 165.148 76.0778 164.644C76.5631 164.14 77.1978 163.785 77.9818 163.58ZM77.5618 166.52C77.5618 167.229 77.9444 167.836 78.7097 168.34C79.4938 168.863 80.6698 169.124 82.2378 169.124C83.8244 169.124 85.1404 168.779 86.1858 168.088C87.2498 167.416 87.7818 166.623 87.7818 165.708C87.7818 165.279 87.6231 164.905 87.3058 164.588C87.0071 164.289 86.5404 164.14 85.9058 164.14H80.5018C79.5498 164.177 78.8218 164.401 78.3178 164.812C77.8138 165.241 77.5618 165.811 77.5618 166.52ZM85.7938 155.152C85.7938 154.181 85.5044 153.397 84.9258 152.8C84.3471 152.184 83.5444 151.876 82.5178 151.876C81.5098 151.876 80.7164 152.184 80.1378 152.8C79.5591 153.397 79.2698 154.181 79.2698 155.152C79.2698 156.123 79.5591 156.925 80.1378 157.56C80.7351 158.176 81.5378 158.484 82.5458 158.484C83.5538 158.484 84.3471 158.167 84.9258 157.532C85.5044 156.897 85.7938 156.104 85.7938 155.152ZM108.214 155.32C108.214 154.107 107.962 153.239 107.458 152.716C106.954 152.193 106.216 151.932 105.246 151.932C104.294 151.932 103.519 152.128 102.922 152.52C102.343 152.893 102.054 153.491 102.054 154.312H99.6177C99.6177 152.259 100.719 150.989 102.922 150.504C103.594 150.355 104.322 150.28 105.106 150.28C106.767 150.28 108.064 150.7 108.998 151.54C109.931 152.38 110.398 153.659 110.398 155.376V164H108.494L108.27 161.76C107.448 163.459 105.964 164.308 103.818 164.308C102.38 164.308 101.223 163.907 100.346 163.104C99.487 162.301 99.0577 161.303 99.0577 160.108C99.0577 158.913 99.5337 157.98 100.486 157.308C101.456 156.636 102.66 156.3 104.098 156.3C105.535 156.3 106.907 156.543 108.214 157.028V155.32ZM108.214 158.428C106.888 158.055 105.731 157.868 104.742 157.868C103.752 157.868 102.95 158.045 102.334 158.4C101.718 158.755 101.41 159.315 101.41 160.08C101.41 161.76 102.362 162.6 104.266 162.6C105.348 162.6 106.272 162.217 107.038 161.452C107.822 160.668 108.214 159.66 108.214 158.428ZM121.566 153.892C121.566 152.791 122.032 151.913 122.966 151.26C123.918 150.607 125.196 150.28 126.802 150.28C128.407 150.28 129.658 150.616 130.554 151.288C131.468 151.96 131.944 152.809 131.982 153.836H129.826C129.658 152.623 128.631 152.016 126.746 152.016C125.831 152.016 125.122 152.221 124.618 152.632C124.132 153.043 123.89 153.491 123.89 153.976C123.89 154.443 124.076 154.844 124.45 155.18C124.823 155.497 125.42 155.777 126.242 156.02L128.93 156.916C130.068 157.271 130.936 157.728 131.534 158.288C132.15 158.829 132.458 159.585 132.458 160.556C132.458 161.508 131.963 162.376 130.974 163.16C129.984 163.925 128.603 164.308 126.829 164.308C125.056 164.308 123.675 163.916 122.686 163.132C121.696 162.329 121.174 161.303 121.118 160.052H123.246C123.283 160.892 123.619 161.527 124.254 161.956C124.907 162.367 125.719 162.572 126.69 162.572C127.66 162.572 128.463 162.367 129.098 161.956C129.732 161.545 130.05 161.06 130.05 160.5C130.05 159.921 129.863 159.483 129.49 159.184C129.116 158.885 128.51 158.624 127.669 158.4L125.066 157.532C122.732 156.841 121.566 155.628 121.566 153.892ZM141.82 150.28C143.686 150.28 145.189 150.887 146.328 152.1C147.485 153.313 148.064 155.049 148.064 157.308C148.064 159.548 147.485 161.275 146.328 162.488C145.189 163.701 143.686 164.308 141.82 164.308C139.953 164.308 138.441 163.701 137.284 162.488C136.145 161.275 135.576 159.548 135.576 157.308C135.576 155.049 136.145 153.313 137.284 152.1C138.441 150.887 139.953 150.28 141.82 150.28ZM145.824 157.308C145.824 155.703 145.488 154.452 144.816 153.556C144.144 152.641 143.154 152.184 141.848 152.184C140.56 152.184 139.57 152.641 138.88 153.556C138.189 154.452 137.844 155.703 137.844 157.308C137.844 158.895 138.17 160.145 138.824 161.06C139.477 161.956 140.448 162.404 141.736 162.404C143.042 162.404 144.05 161.956 144.76 161.06C145.469 160.145 145.824 158.895 145.824 157.308ZM154.417 153.192C155.294 151.251 156.797 150.28 158.925 150.28C160.512 150.28 161.744 150.803 162.621 151.848C163.517 152.893 163.965 154.321 163.965 156.132V164H161.781V156.132C161.781 154.844 161.473 153.873 160.857 153.22C160.26 152.567 159.401 152.24 158.281 152.24C157.161 152.24 156.256 152.697 155.565 153.612C154.874 154.527 154.51 155.796 154.473 157.42V164H152.261V150.616H154.165L154.417 153.192ZM169.72 163.58C168.6 163.039 168.04 162.208 168.04 161.088C168.04 160.509 168.255 160.005 168.684 159.576C169.132 159.128 169.683 158.829 170.336 158.68C169.328 157.784 168.824 156.608 168.824 155.152C168.824 153.696 169.337 152.52 170.364 151.624C171.409 150.728 172.641 150.28 174.06 150.28C175.479 150.28 176.683 150.616 177.672 151.288C177.803 150.299 178.195 149.505 178.848 148.908C179.52 148.311 180.397 148.012 181.48 148.012L181.284 150.196C179.641 150.196 178.783 150.887 178.708 152.268C179.361 153.071 179.688 154.032 179.688 155.152C179.688 156.589 179.165 157.775 178.12 158.708C177.093 159.623 175.805 160.08 174.256 160.08C173.192 160.08 172.249 159.865 171.428 159.436C171.055 159.511 170.719 159.688 170.42 159.968C170.121 160.229 169.972 160.593 169.972 161.06C169.972 162.049 170.793 162.544 172.436 162.544H177.644C178.895 162.544 179.884 162.815 180.612 163.356C181.34 163.879 181.704 164.616 181.704 165.568C181.704 166.987 180.985 168.228 179.548 169.292C178.129 170.356 176.328 170.888 174.144 170.888C171.96 170.888 170.243 170.477 168.992 169.656C167.741 168.853 167.116 167.836 167.116 166.604C167.116 165.801 167.349 165.148 167.816 164.644C168.301 164.14 168.936 163.785 169.72 163.58ZM169.3 166.52C169.3 167.229 169.683 167.836 170.448 168.34C171.232 168.863 172.408 169.124 173.976 169.124C175.563 169.124 176.879 168.779 177.924 168.088C178.988 167.416 179.52 166.623 179.52 165.708C179.52 165.279 179.361 164.905 179.044 164.588C178.745 164.289 178.279 164.14 177.644 164.14H172.24C171.288 164.177 170.56 164.401 170.056 164.812C169.552 165.241 169.3 165.811 169.3 166.52ZM177.532 155.152C177.532 154.181 177.243 153.397 176.664 152.8C176.085 152.184 175.283 151.876 174.256 151.876C173.248 151.876 172.455 152.184 171.876 152.8C171.297 153.397 171.008 154.181 171.008 155.152C171.008 156.123 171.297 156.925 171.876 157.56C172.473 158.176 173.276 158.484 174.284 158.484C175.292 158.484 176.085 158.167 176.664 157.532C177.243 156.897 177.532 156.104 177.532 155.152ZM198.664 163.608C197.059 164.355 195.593 164.513 194.268 164.084C193.316 163.785 192.644 163.16 192.252 162.208C192.047 161.741 191.944 161.181 191.944 160.528V152.296H189.788V150.616H191.944V146.892H194.128V150.616H198.328V152.296H194.128V160.5C194.128 161.863 194.763 162.544 196.032 162.544C196.723 162.544 197.497 162.376 198.356 162.04L198.664 163.608ZM207.007 150.28C208.874 150.28 210.377 150.887 211.515 152.1C212.673 153.313 213.251 155.049 213.251 157.308C213.251 159.548 212.673 161.275 211.515 162.488C210.377 163.701 208.874 164.308 207.007 164.308C205.141 164.308 203.629 163.701 202.471 162.488C201.333 161.275 200.763 159.548 200.763 157.308C200.763 155.049 201.333 153.313 202.471 152.1C203.629 150.887 205.141 150.28 207.007 150.28ZM211.011 157.308C211.011 155.703 210.675 154.452 210.003 153.556C209.331 152.641 208.342 152.184 207.035 152.184C205.747 152.184 204.758 152.641 204.067 153.556C203.377 154.452 203.031 155.703 203.031 157.308C203.031 158.895 203.358 160.145 204.011 161.06C204.665 161.956 205.635 162.404 206.923 162.404C208.23 162.404 209.238 161.956 209.947 161.06C210.657 160.145 211.011 158.895 211.011 157.308ZM232.436 155.32C232.436 154.107 232.184 153.239 231.68 152.716C231.176 152.193 230.439 151.932 229.468 151.932C228.516 151.932 227.742 152.128 227.144 152.52C226.566 152.893 226.276 153.491 226.276 154.312H223.84C223.84 152.259 224.942 150.989 227.144 150.504C227.816 150.355 228.544 150.28 229.328 150.28C230.99 150.28 232.287 150.7 233.22 151.54C234.154 152.38 234.62 153.659 234.62 155.376V164H232.716L232.492 161.76C231.671 163.459 230.187 164.308 228.04 164.308C226.603 164.308 225.446 163.907 224.568 163.104C223.71 162.301 223.28 161.303 223.28 160.108C223.28 158.913 223.756 157.98 224.708 157.308C225.679 156.636 226.883 156.3 228.32 156.3C229.758 156.3 231.13 156.543 232.436 157.028V155.32ZM232.436 158.428C231.111 158.055 229.954 157.868 228.964 157.868C227.975 157.868 227.172 158.045 226.556 158.4C225.94 158.755 225.632 159.315 225.632 160.08C225.632 161.76 226.584 162.6 228.488 162.6C229.571 162.6 230.495 162.217 231.26 161.452C232.044 160.668 232.436 159.66 232.436 158.428ZM248.56 152.66C249.437 151.073 250.744 150.28 252.48 150.28C254.235 150.28 255.691 150.924 256.848 152.212C258.024 153.5 258.612 155.199 258.612 157.308C258.612 159.417 258.024 161.116 256.848 162.404C255.672 163.673 254.225 164.308 252.508 164.308C250.791 164.308 249.521 163.664 248.7 162.376V170.58H246.488V150.616H248.308L248.56 152.66ZM252.396 162.348C253.441 162.348 254.356 161.9 255.14 161.004C255.943 160.108 256.344 158.885 256.344 157.336C256.344 155.768 255.961 154.527 255.196 153.612C254.449 152.697 253.535 152.24 252.452 152.24C251.369 152.24 250.483 152.585 249.792 153.276C249.101 153.948 248.737 154.863 248.7 156.02V158.568C248.7 159.744 249.055 160.668 249.764 161.34C250.473 162.012 251.351 162.348 252.396 162.348ZM263.113 144.932H265.325V164H263.113V144.932ZM279.249 155.32C279.249 154.107 278.997 153.239 278.493 152.716C277.989 152.193 277.251 151.932 276.281 151.932C275.329 151.932 274.554 152.128 273.957 152.52C273.378 152.893 273.089 153.491 273.089 154.312H270.653C270.653 152.259 271.754 150.989 273.957 150.504C274.629 150.355 275.357 150.28 276.141 150.28C277.802 150.28 279.099 150.7 280.033 151.54C280.966 152.38 281.433 153.659 281.433 155.376V164H279.529L279.305 161.76C278.483 163.459 276.999 164.308 274.853 164.308C273.415 164.308 272.258 163.907 271.381 163.104C270.522 162.301 270.093 161.303 270.093 160.108C270.093 158.913 270.569 157.98 271.521 157.308C272.491 156.636 273.695 156.3 275.133 156.3C276.57 156.3 277.942 156.543 279.249 157.028V155.32ZM279.249 158.428C277.923 158.055 276.766 157.868 275.777 157.868C274.787 157.868 273.985 158.045 273.369 158.4C272.753 158.755 272.445 159.315 272.445 160.08C272.445 161.76 273.397 162.6 275.301 162.6C276.383 162.6 277.307 162.217 278.073 161.452C278.857 160.668 279.249 159.66 279.249 158.428ZM283.941 167.892C284.855 168.601 285.817 168.956 286.825 168.956C287.571 168.956 288.215 168.583 288.757 167.836C289.149 167.295 289.503 166.473 289.821 165.372L290.213 164L284.725 150.616H287.189L291.249 161.284L294.413 150.616H296.653L291.641 166.66C291.211 168.023 290.642 169.068 289.933 169.796C289.242 170.524 288.355 170.888 287.273 170.888C286.209 170.888 285.098 170.561 283.941 169.908V167.892ZM300.191 144.932H302.403V164H300.191V144.932ZM308.179 150.588H310.391V164H308.179V150.588ZM309.271 147.452C308.823 147.452 308.468 147.331 308.207 147.088C307.964 146.827 307.843 146.491 307.843 146.08C307.843 145.651 307.964 145.315 308.207 145.072C308.468 144.811 308.823 144.68 309.271 144.68C309.719 144.68 310.074 144.811 310.335 145.072C310.615 145.315 310.755 145.651 310.755 146.08C310.755 146.491 310.615 146.827 310.335 147.088C310.074 147.331 309.719 147.452 309.271 147.452ZM315.706 153.892C315.706 152.791 316.173 151.913 317.106 151.26C318.058 150.607 319.337 150.28 320.942 150.28C322.547 150.28 323.798 150.616 324.694 151.288C325.609 151.96 326.085 152.809 326.122 153.836H323.966C323.798 152.623 322.771 152.016 320.886 152.016C319.971 152.016 319.262 152.221 318.758 152.632C318.273 153.043 318.03 153.491 318.03 153.976C318.03 154.443 318.217 154.844 318.59 155.18C318.963 155.497 319.561 155.777 320.382 156.02L323.07 156.916C324.209 157.271 325.077 157.728 325.674 158.288C326.29 158.829 326.598 159.585 326.598 160.556C326.598 161.508 326.103 162.376 325.114 163.16C324.125 163.925 322.743 164.308 320.97 164.308C319.197 164.308 317.815 163.916 316.826 163.132C315.837 162.329 315.314 161.303 315.258 160.052H317.386C317.423 160.892 317.759 161.527 318.394 161.956C319.047 162.367 319.859 162.572 320.83 162.572C321.801 162.572 322.603 162.367 323.238 161.956C323.873 161.545 324.19 161.06 324.19 160.5C324.19 159.921 324.003 159.483 323.63 159.184C323.257 158.885 322.65 158.624 321.81 158.4L319.206 157.532C316.873 156.841 315.706 155.628 315.706 153.892ZM338.144 163.608C336.539 164.355 335.074 164.513 333.748 164.084C332.796 163.785 332.124 163.16 331.732 162.208C331.527 161.741 331.424 161.181 331.424 160.528V152.296H329.268V150.616H331.424V146.892H333.608V150.616H337.808V152.296H333.608V160.5C333.608 161.863 334.243 162.544 335.512 162.544C336.203 162.544 336.978 162.376 337.836 162.04L338.144 163.608Z" fill="#121212"/>
<path d="M168.293 349.707C168.683 350.098 169.317 350.098 169.707 349.707L176.071 343.343C176.462 342.953 176.462 342.319 176.071 341.929C175.681 341.538 175.047 341.538 174.657 341.929L169 347.586L163.343 341.929C162.953 341.538 162.319 341.538 161.929 341.929C161.538 342.319 161.538 342.953 161.929 343.343L168.293 349.707ZM168 204L168 349L170 349L170 204L168 204Z" fill="#121212"/>
<path d="M142.208 393.672C141.891 391.955 140.631 391.096 138.428 391.096C137.252 391.096 136.347 391.357 135.712 391.88C135.077 392.384 134.76 393 134.76 393.728C134.76 394.437 134.956 394.979 135.348 395.352C135.74 395.725 136.375 396.052 137.252 396.332L140.92 397.592C142.171 398.021 143.16 398.609 143.888 399.356C144.635 400.103 145.008 401.157 145.008 402.52C145.008 403.864 144.429 405.003 143.272 405.936C142.115 406.851 140.565 407.308 138.624 407.308C136.683 407.308 135.087 406.823 133.836 405.852C132.604 404.863 131.969 403.481 131.932 401.708H134.088C134.088 402.865 134.489 403.752 135.292 404.368C136.113 404.984 137.159 405.292 138.428 405.292C139.716 405.292 140.733 405.012 141.48 404.452C142.227 403.873 142.6 403.201 142.6 402.436C142.6 401.652 142.367 401.036 141.9 400.588C141.452 400.14 140.78 399.767 139.884 399.468L136.776 398.32C135.32 397.835 134.219 397.256 133.472 396.584C132.725 395.912 132.352 394.932 132.352 393.644C132.352 392.337 132.875 391.255 133.92 390.396C134.965 389.519 136.431 389.08 138.316 389.08C140.201 389.08 141.639 389.5 142.628 390.34C143.636 391.161 144.215 392.272 144.364 393.672H142.208ZM154.597 393.28C156.464 393.28 157.966 393.887 159.105 395.1C160.262 396.313 160.841 398.049 160.841 400.308C160.841 402.548 160.262 404.275 159.105 405.488C157.966 406.701 156.464 407.308 154.597 407.308C152.73 407.308 151.218 406.701 150.061 405.488C148.922 404.275 148.353 402.548 148.353 400.308C148.353 398.049 148.922 396.313 150.061 395.1C151.218 393.887 152.73 393.28 154.597 393.28ZM158.601 400.308C158.601 398.703 158.265 397.452 157.593 396.556C156.921 395.641 155.932 395.184 154.625 395.184C153.337 395.184 152.348 395.641 151.657 396.556C150.966 397.452 150.621 398.703 150.621 400.308C150.621 401.895 150.948 403.145 151.601 404.06C152.254 404.956 153.225 405.404 154.513 405.404C155.82 405.404 156.828 404.956 157.537 404.06C158.246 403.145 158.601 401.895 158.601 400.308ZM167.194 396.192C168.072 394.251 169.574 393.28 171.702 393.28C173.289 393.28 174.521 393.803 175.398 394.848C176.294 395.893 176.742 397.321 176.742 399.132V407H174.558V399.132C174.558 397.844 174.25 396.873 173.634 396.22C173.037 395.567 172.178 395.24 171.058 395.24C169.938 395.24 169.033 395.697 168.342 396.612C167.652 397.527 167.288 398.796 167.25 400.42V407H165.038V393.616H166.942L167.194 396.192ZM182.497 406.58C181.377 406.039 180.817 405.208 180.817 404.088C180.817 403.509 181.032 403.005 181.461 402.576C181.909 402.128 182.46 401.829 183.113 401.68C182.105 400.784 181.601 399.608 181.601 398.152C181.601 396.696 182.115 395.52 183.141 394.624C184.187 393.728 185.419 393.28 186.837 393.28C188.256 393.28 189.46 393.616 190.449 394.288C190.58 393.299 190.972 392.505 191.625 391.908C192.297 391.311 193.175 391.012 194.257 391.012L194.061 393.196C192.419 393.196 191.56 393.887 191.485 395.268C192.139 396.071 192.465 397.032 192.465 398.152C192.465 399.589 191.943 400.775 190.897 401.708C189.871 402.623 188.583 403.08 187.033 403.08C185.969 403.08 185.027 402.865 184.205 402.436C183.832 402.511 183.496 402.688 183.197 402.968C182.899 403.229 182.749 403.593 182.749 404.06C182.749 405.049 183.571 405.544 185.213 405.544H190.421C191.672 405.544 192.661 405.815 193.389 406.356C194.117 406.879 194.481 407.616 194.481 408.568C194.481 409.987 193.763 411.228 192.325 412.292C190.907 413.356 189.105 413.888 186.921 413.888C184.737 413.888 183.02 413.477 181.769 412.656C180.519 411.853 179.893 410.836 179.893 409.604C179.893 408.801 180.127 408.148 180.593 407.644C181.079 407.14 181.713 406.785 182.497 406.58ZM182.077 409.52C182.077 410.229 182.46 410.836 183.225 411.34C184.009 411.863 185.185 412.124 186.753 412.124C188.34 412.124 189.656 411.779 190.701 411.088C191.765 410.416 192.297 409.623 192.297 408.708C192.297 408.279 192.139 407.905 191.821 407.588C191.523 407.289 191.056 407.14 190.421 407.14H185.017C184.065 407.177 183.337 407.401 182.833 407.812C182.329 408.241 182.077 408.811 182.077 409.52ZM190.309 398.152C190.309 397.181 190.02 396.397 189.441 395.8C188.863 395.184 188.06 394.876 187.033 394.876C186.025 394.876 185.232 395.184 184.653 395.8C184.075 396.397 183.785 397.181 183.785 398.152C183.785 399.123 184.075 399.925 184.653 400.56C185.251 401.176 186.053 401.484 187.061 401.484C188.069 401.484 188.863 401.167 189.441 400.532C190.02 399.897 190.309 399.104 190.309 398.152ZM197.069 396.892C197.069 395.791 197.536 394.913 198.469 394.26C199.421 393.607 200.7 393.28 202.305 393.28C203.911 393.28 205.161 393.616 206.057 394.288C206.972 394.96 207.448 395.809 207.485 396.836H205.329C205.161 395.623 204.135 395.016 202.249 395.016C201.335 395.016 200.625 395.221 200.121 395.632C199.636 396.043 199.393 396.491 199.393 396.976C199.393 397.443 199.58 397.844 199.953 398.18C200.327 398.497 200.924 398.777 201.745 399.02L204.433 399.916C205.572 400.271 206.44 400.728 207.037 401.288C207.653 401.829 207.961 402.585 207.961 403.556C207.961 404.508 207.467 405.376 206.477 406.16C205.488 406.925 204.107 407.308 202.333 407.308C200.56 407.308 199.179 406.916 198.189 406.132C197.2 405.329 196.677 404.303 196.621 403.052H198.749C198.787 403.892 199.123 404.527 199.757 404.956C200.411 405.367 201.223 405.572 202.193 405.572C203.164 405.572 203.967 405.367 204.601 404.956C205.236 404.545 205.553 404.06 205.553 403.5C205.553 402.921 205.367 402.483 204.993 402.184C204.62 401.885 204.013 401.624 203.173 401.4L200.569 400.532C198.236 399.841 197.069 398.628 197.069 396.892Z" fill="#121212"/>
</svg>
